<svg enable-background="new 0 0 1169 1198" height="1198" viewBox="0 0 1169 1198" width="1169" xmlns="http://www.w3.org/2000/svg"><path clip-rule="evenodd" d="m0-1h1168.6v1199h-1168.6z" fill="#e0e0e0" fill-rule="evenodd"/><path clip-rule="evenodd" d="m556.2 733.6c-3 0-6.5 0-6.5 2s0 4.5 2.5 4.5h6s.5-2 .5-4 .5-2.5-2.5-2.5zm11.6-688.9c.9.6 2.4 1.4 3.2 2.2 1.6 1.5 2.3 7.6 2.8 9.8 0 0 0 .2.1.2 2.1 2.9 4.1 5.9 6.3 8.8.5.7 1.5 1.3 2 2.1.8 1.3.9 5.2.8 6.6-.2.4-3.3 6.1-3.4 6.1-.7.7-8 5.9-9.3 6.8-.3 1.4-.2 2.7-.1 4.1.7.9 1.5 1.8 2.3 2.7 1.6-.2 6.8-1 8.2-1 3 .1 11.9 2.5 14.3 1.5 2.5-1 7.3-5.1 9.4-6.8.3-.3.8-.7 1.2-.9.6-.3 3.1-.8 3.7-.7 1 .1 2.3.7 3.3 1l4.2 4.2s2 4 2 7 6.5 2.5 6.5 2.5l4 4s5 .5 8.5.5 3 5.5 3 5.5-1 5.5-1.5 8.5-3 5.5-3 5.5-7.5 4-12 4-8.8-.9-8.8-.9c-.5.2-1.2.5-1.7.5l-17.4 2.1-1.9.7c-1.4 1-3.3 3.7-4.1 5.3.1 1.3.4 2.7.4 4 0 .5-.3 1.1-.4 1.6-.1 1.5.9 3.2 1 4.5 0 0-.5 2.2-.5 2.4-.5 2-1.9 2.6-2 5.2 0 .6-.2 1.4-.1 2 0 .1 2.1 4.8 2.3 5.1h.5c1.3-.8 2.8-1.5 4-2.4 1-.7 1.8-1.7 2.7-2.4l1.6-.4c1.4-.1 3.7.9 4.9 1.6 1.3 0 3.7-1.6 4.7-2.3l3.2-7.7-.4-1.4c-1.7-.8-3.4-1.7-5.1-2.5-.3-.8-.1-2.3.4-3.1.1-.1 1.5-1 1.5-1 1.4-.4 7.8-.7 9.5-.9l2.3 1.2c.9 2 .9 10.6 1 13.1 0 .1.7 1.6.8 1.8.7 1.5 1.3 3.1 1.7 4.7l1.6 1.3c1.2.3 3.9-.6 4.9-1.1 4.7 1.4 8.5 4 10.6 8 .8 1.5 1.6 2.9 2.3 4.5 1 .4.8 3.3 1.8 3.6l12.9 4.9c.8-.5-3.3-7.8-2-8 .1 0 3.9-2 4-2 1.2-.6 2.3-1.2 3.5-1.7.9-.4 2-.6 2.9-1 1.2-.6 2.4-1.5 3.5-2.2.1.1.7.6.7.6.6 1.1.9 2.3 1.4 3.4 1.4 3.1 4.1 9.5 6.3 12 1.7.6 3.9.6 5.6.5.1 0 2.9-.5 2.9-.6l6.1 2s3 0 4-2 3.5-4 3.5-4l4.5-.5 2-7s3 .5 5 1.5 3.5 1 7 2 2 6.5-1.5 8.5-1.5 8.5-1 11.5 5.5 4 5.5 4l6-5.1c2.2.3 3.6 1.4 4.4 3.4-.3 1.7-.3 5.1.2 6.8l1.7 3.3 2.7 2.3c.1 0 2.8.7 3.1.7l.8 1.1c-.4 2.4-.8 4.8-1.2 7.1 1.9-.3 3.7-.6 5.6-.8 1.3-.1 1.4.2 2.4.8l2.8 5.7 1.3.9c.9.3 2.1.3 3.1.5 1.7.3 3.6.6 5.2 1 1.5.4 3.9 2.3 5.1 3.1l1.6 2.9 4.2-2c.7.5 2.3 1.1 2.8 1.6 0 0 1.4 1.7 1.4 1.7s.6 2.7.6 2.8c.2 2.3.6 6.5.6 8.8 0 3.6-3.2 12.4-5.3 15.4-.1.1-3.7 4.4-3.8 4.4-1.2 1-2 1.4-3.3 2.2l-6.5 4.5c-4.6 3.3-9.2 6.8-13.7 10.2-6.2 4.7-12.3 9.5-18.3 14.4-1.1.9-2.4 2.4-3.6 3.1s-5.3 2.4-7 3.1c-.8.4-2.2.7-2.9 1.2l-1.2 1.2c-.2.2-.5.3-.6.6-.8 2-2.5 9.2-3.6 10.7-.8 1-2.2 1.9-3.1 2.9-1.2 1.3-4.3 5-5.2 6.4s-1.3 2.3-2.1 3.8l-4.3 7.5c0 .1-.6 4.9-.6 5.3.1.7.5 1.7.8 2.4 1.1.7 2.8 1.4 3.8 2.2l1.4 2 .3 1.8c-.1 1-.7 2.1-.7 3.1-.1 1.8.2 3.8.4 5.6.1.2 1.6 2.3 1.6 2.4.9.8 2.6 1.5 3.7 2.1l9.2-1.2c2.1 1.5 4.3 3.3 6.5 4.6.1 0 2.2.6 2.4.7 1.6 2.7 3.1 5.4 4.7 8-1.3 2.6-3.2 5.9-4.3 8.5 0 .1-.3 2.5-.3 2.7l2.6 5.4c-1.3 1.6-3.2 4.9-3.7 6.8 0 .1-.6 4-.5 4.1 0 .1.8 4.3.8 4.3s2.7 3.2 2.8 3.2l9.6 7.4c1.9 1.4 2.8 2.4 4.8 3.7 1 .6 12.6 1.7 14.3 2 .8.2 7 3.9 7.5 4.3 0 0 3 4.4 3 4.5.6 1.2 3.3 9.2 3.6 9.5 1.4 1.6 2.5 2.2 4.1 3.7l8.2 7.4c1.2 1.2 4.9 5.4 5.9 6.7 1.6 2.2 2.6 4.9 4.2 7.1 1.4 1.9 4.4 4.9 6.1 6.8 3.3.2 6.8.2 10 .7 1.4.2 5.2 1.1 6.5 1.5l14.3 5c2.8 1 4.4 1.4 7.2 2.5 2.1.9 3.3 1.6 5.3 2.6l10.7 5.3c3 1.5 5.9 3.4 8.4 5.7 4.1.6 4.5.2 7.4 3.1h6.2c1.9 0 5.4 2.1 6.7 3.5 1.5 1.6 2.8 3.7 4 5.5 2.3.1 9.1.3 11-.2 1.5-.4 3.3-1.5 4.5-2.5 2 2.9 3.9 5.9 6 8.7 1.4 1.9 3.7 2.6 6 2-.1 2.6-.2 5.2-.2 7.7 0 1.6.1 2.7-1.5 3.5-1.3.7-4.6-2.6-6-3.2-3.2-1.4 0 4.5.7 5.2.7.8 1.8 1.4 2.6 2.1 1.9 1.4 8.1 5.8 9.3 7.4 1.8 2.5 1.5 6 .7 8.7-1.2 4.1-2 13.6-2 18 0 3.4-2 5-4.2 7.2-3.3 3.3-.9 8.4 1 11.7.9 1.6.7 4.5-1.2 4.5-1 0-2 .2-3 .3-1.4.1-2.8.2-4.2.2-2.6 0-4.3-.3-6 1.7-1.8 2.2-4 3.6-6.7 4.2-3.5.8.5 5.2 1.5 6.5.9 1.1 1.8 4.3 1.5 5.7 0 .3-4.3 7.3-4.7 8-1.9 3.1-3.4 9.6-3.7 13.2-.3 3.2-1.5 5.4-5 5.2-2.9-.1-1.7 1.7-5.5 1.7-4.5 0-5.2 6.3-6.5 9.5-.9 2.4-2.9 3.6-4 .7-.5-1.2-2.4-2.3-3.2-3.5-1.4-1.9-.8-4.3-3.7-5-3-.7-2.2-1.7-3.2-4.2-1.2-2.8-3.1-2.3-5.5-1.7-1.8.4-8.3-1.1-10.2-1.7-1.7-.6-3.7-1.9-5.5-1.7-5.5.5-11.3.8-16.7 0-4.6-.7-6.3 1.7-10 3.5-3.1 1.5-9.6 2-13.2 2.5-2.9.4-5.8 1.5-8.2 3.2-1.5 1.1-3.5 2.9-4.2 4.7.3.5 3.5 7 3.5 7.1 0 0 5.3 3.5 5.3 3.6 1.4.5 6.1.8 7.8 1.2 1.3.3 2.6 1.1 3.9 1.4.8.2 1.8 0 2.6.2l19 5.9c.1 0 3.2 2.1 3.5 2.3.1.1 3.9.2 4.2.2 2.8 0 10.8.5 13.2 1.2s7.7 4.4 9.5 6.2c1.4 1.5 3.9 6.9 4.2 9 .3 2.4-1.4 5.8-3.7 6.5-2.6.8-.8 4.3.5 5.5 1.2 1.1 2 2.6 2.7 4 .5.9 4.1 12.4 4.2 13.3.2 1.6.7 6.9 1.1 8.5s1.7 3.1 2.9 4.1c.1.1 2.7 1.9 2.7 1.9l9.9 3c1.9.6 3.1.8 4.9 1.5 2.4.9 6.7 3.1 9.2 4.3 3.4 1.6 6.8 3.3 10.2 4.8 2.6 1.1 5.4 2 8.1 2.9l11 4c.1.1 1.4 1.8 1.4 1.8.6 1.8.6 4 1.1 5.9 0 .1 1 2.1 1.1 2.2.9 1.7 1.7 2.8 3.3 4 .7.5 1.8.9 2.4 1.4s3.3 3.6 3.7 4.3c.5.9.2 1.7.5 2.5.2.6.7 1.2 1 1.7.2.4.2.8.4 1.1.1.1.8 1.8.9 1.8.6.8 7.4 5 8.4 5.4.5.2 1.1.3 1.6.5 1.5.6 2.3 2.4 2.5 3.9-.4 1.5-3.1 2.2-4 3.6-.1.7 1 2.1 1.4 2.6.7.8 1.6 1.7 2.5 2.3.1.1 1.7 1 1.8 1 2.2.8 5.3-.5 7.5-1 1.5.4 4.7 3.7 5.8 5 .5.5.9 1.2 1.4 1.7s1.2.9 1.8 1.4c.5.5 1 1 1.6 1.5 1.8 1.4 4.3 3.1 6.3 4.3 5.1 3.1 6.6 3.2 8.7 9.5.8 2.5.9 4.8-.6 7 0 .2.1 1.7.1 1.8s.8 1.3.9 1.5c.5.9 1 2 1.4 3-.4 1.2-1.2 4.7-1.2 5.9.1.2 1.2 1.7 1.3 1.8 0 0 1.5.8 1.6.8 1.1.6 2.5.2 3.1-.9.6-1 1.9-2.6 3-3 .4-.1 4.2-.2 4.7-.2 2 0 5.7-.6 7.5-1.5 1.2-.6 2.4-1.4 3.6-1.9.4-.2 1.1-.2 1.3-.3 1.3-.6 2.5-1.4 3.9-2.1.7-.3 1.5-.6 2.2-.9 1.4-.7 2.7-1.5 4-2.2.9-.4 2-.8 2.8-1.3 1.6-.9 3.1-2 4.6-3 1.1-.7 2.3-1.2 3.4-1.8 2-1.2 4-2.8 6.1-3.7 4-1.7 8.5-2.8 12.9-3.1.2 0 1.6-.1 1.7-.1 0 0 1.4.5 1.4.5.4.2 1.7 2.8 1.8 3.2.2.9.2 1.8.6 2.6 1.3 2.6 2.9 1.3 3.9 2.4 1.2 1.2 1.8 3.2 3.1 4.2 2.7-.1 4.4-3.7 5.6-5.7 1-.5 2.4-.3 3.4-.1l1.7 1.3c.4.9.3 1.8.2 2.7-.2 2.2-.5 4.5-.7 6.7-.1.8 0 1.6-.2 2.3-.1.6-.5 1.4-.5 2 0 .1.3 1.7.3 1.9.1.6.2 1.5.4 2.1.4 1.2 2 3 3.1 3.7 1 .7 2.9.7 3.9.1l.4-1.3 1.3-.9h1.3c.9.6 2.7 2.1 3.9 1.7 1.6-1 2.1-3 4.2-3.5 1.8-.5 3.9-.3 5.7-.5 1.4-.2 2.8-.5 4.1-.8 1.9.7 3.9 1.6 5.6 2.7s5.2 2.3 7.2 2.7c1.6.3 6.1.8 7.1 2.8.7 1.4 1.1 2.9 1.7 4.3 1 2.3 1.9 3 2 5.7l-1 .7c-1.9-.1-3-.6-4.6-.8-1.5-.2-4.6 1-5.4 2.4-.7 1.1-1.3 2.8-2.1 3.8-.5.7-1.6 1.3-2.3 1.7-1.7 1.1-3.5 2-5.4 2.8-.5.2-1.1.4-1.5.6-2 1.1-2.2 3.2-1.7 5.3.2.8 1.3 3.7 1.5 4.2 1.2 1.9 5.4 5.9 7.2 7.4 2.4 2.1 6.2 4.8 6.6 8.2-.8.5-2.4.6-3.2.4-2.8-2.6-6.1-1.8-9.2-3.3-1.3-2.7-3.5-6.5-7-4.5-.8.5-2.8 2.2-3.3 3-2.1 3.2-3.5 6.8-5.6 10-.2.4-.5.9-.7 1.2 0 0-.7.5-.8.6s-1.3.7-1.3.7c-2.2.7-10-2.5-12.1-3-.2 0-1.6.2-1.9.1-.5 0-1-.4-1.5-.4-1.6-.2-3.3.3-4.4 1.6-.1.1-1.3 2.4-1.3 2.5-.1.6 0 1.4-.1 2-.1.5-.7 3.1-1 3.6-.7 1-2.6 2-3.6 3.6l-.5 1c-.3 1.9 1.7 5.4 2.5 7.1.6 1.4 1.1 2.8 1.7 4.2.3.7.7 1.4 1 2.1.2.5.3 1.2.4 1.8.6 2.1 1.1 4.4 2.1 6.3 1.2 2.2 2.9 4.2 4.3 6.4 1.1 1.7 1.9 3.1 3.4 4.5 1.8 1.6 4 2.7 5.9 4.1 2.7 1.9 7.6 6.9 10.7 7.6 3.8-.2 5.5-5.3 8.6-6.9l1.4.1c1.1 1 1.7 2.3 2.6 3.4 1.2 1.5 1.7 1.7 2.7 3.6.4.7.7 1.7 1.2 2.4 1.2 1.6 3 2.9 4 4.7.1.2.8 3.1.8 3.3.2 2.1-1.6 3.8-2.6 5.6.1 1.5 2.3 10.6 3 11.7.3.5.8 1 1.1 1.5.4.5.6 1.2 1 1.7.7 1 1.4 1.5 2 2.7.9.3 1.8.8 2.7 1.1.7.2 1.5.4 2.2.6 1.7.5 3.3 1.2 4.9 1.8.6.8.5 1.5.8 2.4.5 1.6 1.4 4.8 2.5 6.1.5.6 2.4 1.7 3.2 1.9 1.3.2 3.6-.1 5-.1 1.9 0 4.1.3 5.9.9.4.5.7 1.2.8 1.7-.2.6-1.2 1.2-1.7 1.5-3.8 2.6-7 1-10.8 2.8-.7.3-1.4.9-2 1.3-4.6 3-5.7 4.6-8.4 9.2-.6 1.1-1 2.4-1.9 3.3-1.1 1.2-2.8 1.8-3.7 3.1-1.2 1.7-1.5 3.1-3.1 4.6-.8-.4-1.5-2.3-1.7-3.2-.2-1.2 0-2.6-.1-3.8-.1-1-.3-2.1-.4-3.1-.2-2.3-.1-4.7-.5-7-.2-1.2-1.1-1.9-1.8-2.8l-1.4-.5c-1 .1-3.3.9-4 1.6-1.1 1.1-2.2 2.6-3.2 3.9-1.1 1.4-2.3 4.7-4.4 4.7-1.6-1.1-7-3.7-8.5-4.3-.2-.1-1.9 0-2.3-.1-.8-.1-1.6-.5-2.3-.6-.6-.1-2.7.2-3.3.7-2.1 1.4-2.2 3.5-2.3 5.8-.1 1.9-.1 3.8.3 5.7.1.7.5 1.4.7 2.1.4 1.5 1.2 6.2 2.8 7.2 1.3.8 3 .9 4.4.7l4.8 3c1.4 0 3.6-1.9 5.5-2.4 1.1.4 2.3 1.1 3 1.9-.8 1.9-3.5 5.2-3.2 7.3.2 1.5 1.4 2.1 2.5 2.9.4.3.9.9 1.3 1.1 1 .5 1.7.1 2.5 1.3.4.6.6 2.5.4 3.1-.1.3-.4.7-.5 1-.2.9.9 3.5 1.5 4.1.7.8 1.9 1.1 2.8 1.6 1 .6 1.6 1.4 2.8 1.6 1.6 1.9 3 3.9 3.5 6.3l-.7 1.8c-1.9.5-4.5 3.1-4.7 5.2l.2 1.2c.6 1 1.5 1.9 2.3 2.8 1.1.6 1.8.3 2.8.3 1.5.1 3.9.7 4.9 1.9.4.8.2 1.5.1 2.3-.4 1.5-1.1 2.5-2 3.7-.1.1-.9 1.1-1 1.2-.4.9-.7 2-1.1 2.9-.9 2.5-1.8 4.9-2.5 7.5-.3 1.1-.5 2.2-.8 3.3-.5 1.5-1.2 3-1.7 4.5-.4 1.2-.5 2.3-.7 3.4 0 .2-.3.6-.3.8-.2 2.6 2.5 4.3 1.4 7.1-.7 1.8-2.1 2.7-3.3 4.1-.5.6-1.4 3.2-1.5 4 0 .1-.2 1.9-.2 2 .1 1.5 3.3 8.2 4.1 9.5 1.5 2.6 3.3 5 4.8 7.7.3.5.8 1.2.9 1.7.3.8.6 3.2.7 4.1.1 1.4-.2 2.8.1 4.2.4 2.4.8 4.7 1.4 7.1l-4.8 3.6-3.3-1-.9-6.2-1.4-1.4-2-.3c-1.5.9-3.6 1.2-5.2 1.5l-4.9.8s-4.6-1.5-4.7-1.5c-.2-.1-3.7-3.2-4.1-3.6-1.1-.4-3.9.1-4.9.4l-2.4 1.3c-.5.2-.8.3-1.2.6-.9.8-2.2 2.5-3 3.5h-1.8l-10.9-8.8c-.4-.2-3.3-.9-3.9-1.1-2.4-1-4.8-2.5-7.1-3.7-.3 0-4.5.5-4.5.5-1.4.7-7.7 5.1-9.4 6.2l-3.9-1.2-3.7 1.7-2.5-.9c-1.3.2-5.9 3.2-6.8 3.9s-1.8 2.2-2.5 3l-.3.3c-1.1 1.4-3.4 4.5-4.5 5.6-1 .9-3.8 2.6-5.1 3.5l-.8.1c-1.3.2-2.6.6-3.9.9-.5.6-5 5.1-5.3 5.3-.2.1-4 1.1-4.3 1.2-.2.1-4.3 4.4-4.8 4.8-.2 0-1.9.3-1.9.3l-14.1-1.8s2.8-12.6 3.6-16.5c.3-1.3.4-2.6.6-4 .1-1 .5-2.1.5-3.1 0-.7-3.8-10.1-4-10.6-.3-.8-.4-1.8-.7-2.6-.5-1.3-1.3-2.6-1.8-3.9-1.1-2.9-1.9-6-3.1-8.9s-2.6-5.6-3.4-8.6c-.6-2.5-1-5.1-1.7-7.6-.2-.8-.6-1.7-.9-2.5-.5-1.6-1.5-4.4-1.7-6v-1.8c0-3.2.7-6.4-.1-9.6l-.3-1.2c-.4-.7-1.3-1.6-1.9-2.2-2.1-2.1-3.7-3.4-4.7-6.4-.4-1.3-.4-2.7-.8-4-.3-.9-.7-1.8-1-2.8-.4-1.4-1-4.6-1.9-5.7-1-1.3-3.4-3.2-4.9-4-2.6-1.5-6.3-2.5-8.2-5-.4-.6-.8-1.6-1.1-2.2-.6-1.4-2-5.4-2.2-6.8-.1-1.1.1-2 .2-3.1 0-.5-.1-1.2 0-1.7.3-2.3 1.8-4.3.8-6.7-1-2.2-4.2-4.6-5.6-6.7-.3-.4-.7-.9-.9-1.4-.1-.3-.5-2.4-.5-2.7 0-.2.8-4.5.8-4.6.3-.8.8-1.6 1.2-2.3 0-.2-.1-1.8-.1-1.9-.4-1.3-3.9-4.3-4.9-5.1 0-1.5.2-6.8 0-8.1-.3-1.7-1-3.4-1.2-5.1-.3-2.2-.2-6.4-.2-8.5-.1-2.2-.9-9.2 1.4-11.2v-18.2l-9.8-5.7c-4.8-2.7-9.7-6.6-14.2-9.7-1.3-.9-2-1.6-3.4-2.4-2-1.2-4.4-1.8-6.4-3-1.9-1.2-4.5-3.3-6.4-4.8-.1-.1-.8-.4-.9-.4-.5-.2-6.3-3-6.5-3-2.1-.5-3.3-.4-5.5-.7l-11-1.4-2.2-.8c-.1 0-2.8-3-2.9-3.1l-2.1-2.3s-1.3-3.6-1.3-3.6c-.1-.9.1-1.4.2-2.2l.3-4.5c.4-1.2.9-1.8 1.5-3l3-5.9c1.7-2.9 4-5.6 5.6-8.6.7-1.4 1-2.2 1.6-3.6 1.4-3.2 3.8-7.9 4.2-11.5-.4-1.3-.8-3-1.4-4.2-.3-.7-3.2-3.1-3.7-4l-1.1-3.5 1.1-14.8-.4-1.7c-.2-.8-.3-2.1-.6-2.8-1.5-3.5-4-6.3-6.4-9.2-.8-1-1.4-1.6-2.2-2.7-1.1-1.7-1.7-3.9-2.8-5.7s-4.2-4.5-6-5.6c-.6 0-1.3 0-1.9-.1-.7-.1-8.3-1.2-8.5-1.3-1.8-.7-2.6-1.4-4.2-2.3l-8.5-4.6-3.1-.3-4.8 3.9-4 5.4c-.8 1-1.1 1.7-2 2.7-.7.7-1.2.8-2 1.4l-4 2.8c-1.1.6-4.5 1.8-5.8 2.3-.1 0-1.6.2-1.7.2-.5.1-7.5.8-7.6.9-1.5.6-2.2 1.3-3.6 2.1l-7.3 4.2c-3.7 1.8-8 2.8-11.7 4.5-1 .5-3.2 2.6-4.1 3.6l-8.9 10.5c-.2.2-2.8 2-3.3 2.2-.7.3-4.8 1.7-5 1.7-1.5.1-8.5-.4-10.3-1-.2-.2-1.3-1.3-1.3-1.4-.8-1.9-3-7.7-3.9-9.2l-3.2-3c-.4 0-7.7.3-7.8.2l-6.8-3.7c-1.3-.7-2-1.3-3.4-1.9-.9-.4-1.5-.4-2.5-.6-2.8-.7-10-2.1-12.5-3.5-1-.6-2.1-1.8-3-2.5-.2-.9-.5-2.4-.9-3.2-.5-1.1-8.6-15.3-9-15.7l-6.2-4.6-4.2-1c-.8-.2-1.3-.4-2.1-.5l-3.7.1-2.1 1.1c-.4.2-.7.3-1 .6-.1.1-1.8 2.2-2 2.5-.9 1.1-2.3 2.5-3 3.7-1 1.6-1.4 5-3.1 6-.3 0-4.2.5-4.2.5-.2 0-5-1.8-5.5-2-.7-.9-2-2.5-2.5-3.5-.1-.3-1.9-6-1.9-6.1-.1-1.6 1.4-4.9 1.3-6.6 0-.3-1.4-6.4-1.6-7.1.7-1.6 2.6-5.6 3-7.1 0-.1-.1-3.4-.1-3.7-.1-1.7 0-6.2-.2-7.7 0-.1-2.3-7.3-2.4-7.4 0-.1-3.6-6.1-3.6-6.1-.2-.3-5.6-4.2-6.6-5l-3.5-9.7c-.6-1.3-5.9-9.6-6.8-10.8 0-.1-2.7-2.2-3-2.3-2.2-1.7-4.4-3.8-6.8-5.3-1-.7-3.4-1.5-4.6-2l-2-.8h-3.6c-.7 0-1.1-.1-1.8 0l-2.7 1.5-9.4 8.9c-1.8 1.7-2.8 2.8-4.7 4.5l-4.4 2.8-5.8 5.8-10 5.5s-10 3-12 3-7-5.5-8.5-9-5-.5-5-.5-2.5 3-7 2.5-8.1 2.8-8.1 2.8c-1.4.2-2.8.3-4.2.5l-8.1 1.1c-.1 0-3.4.4-4 .5l-10.3 3.2-3.2-.4-1.8-1.9c-1.4-2.5-2.5-5.9-3.9-8.3 0 0-2.8-2.5-2.9-2.6s-3.7-1.4-4-1.5c-1.4-1.5-1.2-5.6-1.8-7.5 0 0-1.6-2.6-1.6-2.6-.1-.1-1.8-1.2-2-1.3-.8.6-2.9 1.7-4 1.3l-1.7-4.5 1.9-5.3-1-2.2-2.4.1-2.7 2.3-3 .3-10.1-7c-1-.6-2.2-.8-3.2-1.4-2-1.3-3.9-2.9-5.7-4.3l1.9-3.4-.5-2.6-6.2 2.2-2.3-.9c-.1-.1-1.1-1.5-1.1-1.5-.6-1.9-.3-7.7-.6-9.9l-.7-1.4c-.2-.4-1.5-2.7-1.7-2.9-1.8-1.5-4.1-2.6-5.8-4.1-1.1-1-2.4-2.8-3.3-4-.4-2.8-.6-5.8-1.1-8.5 0-.1-1.3-3.7-1.3-3.7l-4-4.6c-.8-.9-1.1-1.5-2-2.3-.2-.2-3.5-1.3-4-1.6l-1.5-1.3c-.3-.2-.5-.3-.7-.6-1.7-2.4-3-5.1-4.6-7.5-2.4-3.5-5-6.9-7.5-10.2 0-.1-1.3-.9-1.4-1-1.4.1-5.6-.3-6.8-1.3-1.3-1.2-2.3-3-3.7-4.1-2.8-2.4-7.2-5.4-10.3-7.7l-2.5-1.9h-15.3l-12.8-13.3c-2.2-.8-8.1-2.6-10.6-2.2-.1 0-2.6 1-2.9 1.1l-1-.2c-.1-1.1-.9-3-1.8-3.6l-2.8.1-2.4-2.8c-1.2.3-3.9 1.3-5.1 1.4-1.9.2-4.1-.4-6-.3-2 .1-6.6 2-8.6 2.7-1.2.3-2.6.8-3.8.9-1.7.2-3.5-.2-5.3 0-.6.1-2.7 1.3-3.1 1.9-.1.2-1.6 2.3-1.7 2.3-1.2 1-3 1.8-4.3 2.6l-.2.1-2.5-3.7-2.5 1c-1.3-.5-4-1-5.4-.6-1.3.4-3.6 2.1-5.1 1.4l-1.3-2.8-4-.5c-1.9.1-3.9.8-5.9.9 0 0-6.6-2.8-9.1-4.8s-6.5-2-9-2-5-1-7.5 1-5.5 3.5-5.5 3.5l-5.2 4.7c-.1 0-5.5 3.2-5.9 3.4 0 0-1.1.2-1.2.3l-1.3-1.3-.5-.1c-1.7-.2-4.6-.8-6.2-.8-1.5 0-3 .3-4.5.4-2.4.2-11.4.6-11.4.6-.1 0-4.5-1.7-4.9-1.8-.2-.1-.4-.2-.5-.3-1.2-.6-2.9-1.2-4.1-2-1.8-1.2-4.2-3.8-5.9-4.8-1.4-.8-5.1-1.9-6.8-2.6-1.2-.5-3.6-1.6-4.7-2.4-1.2-.8-2.4-2.1-3.4-3.1 0 0-.4-.1-.4-.1-1.4-.4-3.2-.8-4.5-1.4-1.1-.5-2.3-1.6-3.3-2.2-.1-.1-.2-.1-.3-.2-3-2.4-6-4.7-9-7.2-.3 0-10.9 1.6-11.5 1.5-.2 0-6.5-1.5-6.6-1.5 0 0-4-2.8-4.1-2.9-.6-.6-1.1-1.6-1.7-2.2-.1-.1-2.3-2-2.4-2-1-.6-2.6-1-3.8-1.4-2.8-1-5.5-1.9-8-3.4-.8-.5-1.8-1.7-2.5-2.3-.1 0-.2-.3-.2-.3l-1.7-2.8c-.2-.4-.4-.5-.6-.9-.4-1.2-.5-3.4-.7-4.7l.4-.3c.1-.4 1.5-4.6 1.6-4.7l3.3-3.5c.6-.4 1-.4 1.6-.6l3.2-1.2c3.7-.9 7.7-1.5 11.5-2.2 0 0 1.5-1.3 1.6-1.4l.6-1.9-.6-2-3-2.7c-.7-1-2.1-4.6-2.6-5.8-.2-.5-1.2-2.8-1.3-2.8-1.8-2-5.7-4.3-8.1-5.4l-.6-2.3c-.2-.1-1.7-1.5-1.8-1.6-.6-.9-1.1-2.4-1.6-3.5l.6-2.1.4.7 6.2 1.9 1.2-2.1-1.3-.1-.4-1c.6-.8 1.2-1.6 1.8-2.4l.1-2.7c-.3-.1-.7-.2-1.1-.2l-.9-1.6c1.2-2.2 1.7-2 1.3-4.3l.9-1.4-.6-1.3-3.1-.7-3.4-4.7c-1.1-.1-2.8.5-3.5 1.4l-1.6-1.3h-2.2l-1.2-1.2c.2-.8.4-1.7.6-2.5l-1-1.7-2.4-1.2c.4-1 .9-2.1 1.3-3.1l-.6-1.7-.3-.2c-.2-.1-2.7-1.6-2.8-1.7-.8-.9-1.1-1.6-1.8-2.6l-3.5-5.2c-1-1.7-2.1-5-2.9-6.9-1-2.4-2-4.9-3.1-7.3l.6-1.2c.1-.2 1.1-2.3 1.1-2.4.3-1.4 0-3.6.4-4.9.2-.8 1.9-2.9 2.3-3.8.4-1.1.3-2.7.6-3.9.2-.6.7-1.4 1-2 .6-1.2 2.1-2.1 3.1-3 0-.2.6-3.2.6-3.3l-1.9-5.9.7-1.3 1.2-.5.4-1.4c-1.3-1.5-1.9-2-2.3-2.7-.5-.7-.7-1.5-1.7-3.8 0-.1-.1-.2-.2-.3l-1.2-.6c-3.1-1.6-2.4-1.3-4.3-3.7l-1.8-.7c-.7-1-1.6-2.3-2.4-3.2-.1-.1-3.2-2.2-3.2-2.2l-5.8-.7-2.8-4.2v-.4c.2-1.8.3-1.3-.4-3-.1-.4 0-1.4 0-1.9.6-.8 3.8-4.2 4.2-4.9.4-.8.6-2 .9-2.8l2.1-1c2.4-1.2 2.4-1.5 4.4-3.5l1.4-1.3 4.3-.8 3.2-3.4 1.2.3c1.8-1.8 3.7-3.6 5.5-5.3l1.6 2.2c-.3.4-.6.9-1 1.3l.9 1 2.3-1.7.3-1.6-2.4-4.5.5-1.3c.9.2 1.9.3 2.9.4l1.1 2.6 3.2 2.7 1-2.3c-.5-2-1.7-5.9-2-7.7 0-.2.3-4.3.3-4.7 0 0 .6-1.3.6-1.4l1-.3c.5.4 1 .9 1.6 1.3l3-2.1.3-1.1c.8-2.5.7-2.3 2.3-4.3.7-.9.7-1 1.8-1.5l2.1-1c.6-.3 3-3.9 3.2-4.8.1-.5 1-4.2 1.1-4.4.5-1.2 3.7-4.4 4.1-5.1.4-.8.6-4.1 1-4.7 1.3-2.2 4.1-5.1 4.5-7.6.2-1.5-.1-3.4.3-4.8 0 0 2-5.1 2.1-5.1.1-.2.3-.3.5-.4l1-.8 2.9-.3c2.1-1.7 1.2-3.6 2-5.3l1.6-2.3c-.5-1-1.4-2-1.7-3-.5-1.4-.4-3.2-.9-4.6-.5-1.5-1.3-3-2-4.4 1.1-2.4 2.9-5.9 3.7-8.3.3-.8.3-2 .4-2.8 0-.3.3-1.8.3-1.8-.7-2.5-1.3-5.4-2.2-7.8-2.9-7.8-6.2-15.5-9.2-23.3-.5-1.2-.6-2.8-1.2-3.9 0-.1-2.1-2.4-2.2-2.5-2-2.1-4-4.2-6.1-6.3-1.4-1.4-2.5-2-3.6-3.8l-1.1-2.3c-.3-1.6.3-4.6.7-6.2.1-.6.4-.9.3-1.5 0-.4-2-6.8-2.3-7.6l.2-1.3c.3-1.9.5-3.9.9-5.8.4-1.6 1.2-3.2 1.7-4.8-1.1-1.9-2.1-3.9-3-5.8.7-1.7 1.3-3.6 1.5-5.4-.2-.3-1.5-2.6-1.6-2.7-2.7-2.5-5.4-4.9-8-7.4-.8-.8-1.5-1.8-2.3-2.5-1.5-1.3-3.2-2.4-4.8-3.7-1.5-1.3-2.9-2.7-4.3-4-.2-.2-.3-.3-.5-.5-3.2-3.4-4-4.8-7.9-7.2-.4-.2-2.2-1.3-2.7-1.4-.9-.2-1.9-.1-2.8-.2s-1.3-.2-2.2-.4c-2.3-.4-4.9-.6-7.1-1.4-1.7-.6-3.6-1.8-5.1-2.7-3.2-1.9-6.4-4.1-9.7-5.7-2.5-1.2-8.6-2.2-10.2-3.3-1-.7-2.2-2.1-3.1-3l-.6-2.4c0-1.8.5-3.6.5-5.4 0-2.2-.3-4.6-.4-6.8 0 0-.1-.3-.2-.4-.2-.5-.5-1.3-.8-1.8-1.4-2.1-3.4-3.9-4.7-6-.8-1.3-1.8-5.2-1.8-6.7 0-.5.2-.7.3-1.2l.6-2.4c1.4-4.2 4.6-9.9 6.7-13.8 1.5.1 3.5.7 4.9.4.2 0 1.7-.3 1.8-.3 1.6-.7 3.1-1.7 4.6-2.5 2.2-1.1 4.4-2 6.5-3.1 1.7-.9 5.1-2.8 6.9-3.3 2.2-.5 4.9-.5 7.1-.3 1.1.1 3.6.4 4.6 1 .7.4 1.1.7 1.7 1.1l3.5 2.3c1.4 1.1 2.6 2.6 4 3.7s3 2 4.5 3c1.1 0 8 .1 8.2.1 0 0 5.5-2.1 5.6-2.2 1.8-.9 3.4-2.6 5.2-3.4l3-.3c1.9.8 4.2 2 5.8 3.2 1.7 1.3 3.2 3.1 5 4.3.1 0 3.3 1.2 3.6 1.3.2.1.5.3.7.4 1.2.6 2.7 1.7 3.9 2.1l5.3 1c.2-.1 2-.9 2-.9.4-.3 4.8-5.9 5.2-6.4.6-.8 1-1.8 1.6-2.5.3-.3.5-.4.8-.7l1.6-1.3c1.7-.9 3.6-1.2 5.3-2.3l7.3-5c1.4-1 2.2-1.6 3.7-2.5.4-.2 7.1-3.1 7.6-3.3 1.4-.5 3.9-.3 5.2-.2 3.2.2 8.2 1 11.1.8 3.8-.3 7.6-.4 11.3-.5.1 0 7.4-.2 8.3-.1l1.8.9c1.6.8 3.5 2.1 5 2.7 1.2.4 4.6.9 5.9.4l5.8-6.7c.1-.1 3.4-2.5 3.5-2.5s4.3-1.5 4.4-1.5c1.1-.3 2.3-.1 3.4-.4l2.4-.7c2.5-.8 4.5-2.4 6.9-3.4.4-.2.7-.1 1.1-.2 5.1-1.1 6.9-.3 12 0 4.9.3 9.8.4 14.7.5 3.6.1 8.2-1.1 10.8-3.7l1.2-1.1 3.9-9.1c-.4-4.1-5.7-7.8-1-11.5.7 0 1.4-.1 2-.1 1.2 1.1 3 3 4.3 3.9.3.2.5.1.8.2 1.8.5 4.2.8 6 .2 1.4-1.3 2.9-2.7 4-4.3.9.2 2.8 1.5 3.4 2.1l1.2 1.6c.2.3.5.4.6.8.4 1.2.8 5.5 1.4 7.5.5.8 1.7 1.1 2.5 1.3l2.6.6c2.3 0 4.8-.8 7.2-.9.6 0 6.2.4 6.8.6 2.3.8 4.7 2 6.9 3 .7.3 1.6.4 2.3.6l1.4-.8c.3-.6.8-1.5.9-2.1 0-.1-.1-1.3-.1-1.6.1-1.8.3-4.9 1.6-6.3.8-.7 2.7-1.4 3.8-1.3l2 .7 8.1 4.9c1.6 1 2.6 1.4 4.1 2.5 2.2 1.6 4.4 4.4 6.6 6.1l4.1 2.6s8.4 2.3 13.9 5.3 12.5 0 15-2 5.5-6.5 7-9 6-6.5 6-6.5l1.5 5-2 5s0 2 2 3.5 3.5 1.5 6-1 3.5-4.5 3.5-4.5l6.5-2.5v5.5c0 2 7 3.5 7 0s1.5-11.5 1.5-11.5l.7-4.7c2.1.1 4.2.9 6.3 1.5l10.6-.2s1.7.8 1.8.9c.4 1.8 1.7 3.9 3 5.1.8.3 3.3.9 4.1.7 1.2-.2 2.4-1 3.6-1.2.4-.1.7 0 1.1 0l2.2-.1c.8.1 2.2 1.1 2.6 1.7l.3 3.9 1.9 1 3.9-1.1c.1 0 3.1-2.6 3.3-2.8 2-.6 4.1-.5 6.1-.5.6 0 1 .1 1.6 0 1.6-.3 5.2-1.7 6.9-2.3l2.9 1.1 2.7-1.4c.3-.1.5-.1.9-.1l1.7-.2c2.1.2 4.2 1.2 6 2.1l5.4 2.6c.1 0 .4.2.4.2 1.1.1 2.4.4 3.5.4 2.2 0 7.5 2.9 9.7 2.7l5-.5-2-5-8.1-2.3-2.8-.5c-1.1-.5-2-1.8-3.1-2.4-.3-.2-5.2-1.5-5.8-1.7 0 0-.4-.4-.5-.4-.8-.7-2-1.6-2.7-2.5-2.1-2.7-4-5.7-5.9-8.5-.1-.1-1.2-3-1.3-3.4.4-1.4 2.7-3.2 3.9-3.8v-2.3l-1.9-2.7c0-.1.3-1.5.3-1.5l4.1-7c.4.3 1.6.6 1.8 1.1 1.5 2.8 3.1 5.5 4.5 8.3 2 .9 4.2 2 6.3 2.8 1.3.5 5.2.1 5.9.7 2.4 1.7 4.4 4.1 7 5.6 2.1.3 4-1.4 6-.9 5.4 1.4 9.5 3 15.1 1.9l2-3.4c.4-1.2.2-2.7.6-3.9 0 0 1.2-1.7 1.2-1.8 1-1.2 2.3-1.9 3.5-2.9 2.6-2.1 4.8-4.7 7.5-6.7l2.7-1.3c.9-.3 3.6-.2 3.9-.1zm-1.6 111.6c-2-4.5-1.5-17.4-.8-22.3 1.1-2 3.6-3 5.8-2.3l2.1 1c.4.2.7.2 1 .5l1.6 2.2c.3.4.6.6.8 1.1l.2 2.4c.2 2.3-.3 4.3-1.6 6.1-.1.2-1.2 1.7-1.3 1.8-.4 1-.5 2.3-.7 3.4-.1.6-1.4 5.4-1.7 5.8 0 .1-1.5 1.5-1.7 1.7-1.2-.1-2.8-.8-3.7-1.4zm65.8 19.9c-1.2 1.7-2.7 3-4 4.6l-1.2 2.1c-.4 1.2-.7 4.2-.4 5.4.2.8.8 1.9 1.2 2.7.1.2.9 2.1.9 2.1.6.8 1.8 1.7 2.6 2.5l.5.5c3 .3 6 .6 9 .9 1.7.2 2.5 1.7 3.9 2.5l1.7.6c.4.1 3.8-.2 4.2-.3.1 0 2-1.4 2.2-1.5l-.3-4.9c-1.1-1.5-2.2-3.3-3.5-4.6-1.3-1.4-3.5-2.5-4.7-3.9-.8-1-1.4-2.5-2-3.6-.7-1.1-1.4-2.1-2-3.2-4.9-2.4-2.7-2.4-8.1-1.9zm105.1 164.1 2.4-3.3 4.1-2.2 4-.6 5 2 4.9 3.9 2.5 5.8-1.2 9.3-8.5 7.3-4 5.8-4.5.5-2.5-5v-7.5l-4.3-3 1.6-12.3z" fill="#fefee9" fill-rule="evenodd"/><g fill="none" stroke="#0978ab" transform="translate(84.347743 86.436581)"><path d="m1084.2 1015.2c-.3.3-3.4 3.4-3.6 3.7-.7.7-5.4 4-5.7 4.4-.8 1.1-1.1 2.9-1.7 4.2-.7 1.3-2 2.4-2.7 3.7-.8 1.3-1.5 2.8-2.2 4.2 0 .1-.1.2-.1.2-1.2 1.5-3.2 4.4-4.5 5.7-1.5 1.5-5.4 4.1-6.6 5.5-1 1.1-4.7 7.5-5.7 9.1-.4.6-.6 1-1.2 1.4l-7.1 6c-2 1.7-4 3.3-6 5-2.8 2.6-5.5 5.5-8.2 8.2l-4.8 3.6-3.3-1-.9-6.2-1.4-1.4-2-.3c-1.5.9-3.6 1.2-5.2 1.5l-4.9.8s-4.6-1.5-4.7-1.5c-.2-.1-3.7-3.2-4.1-3.6-1.1-.4-3.9.1-4.9.4l-2.4 1.3c-.5.2-.8.3-1.2.6-.9.8-2.2 2.5-3 3.5h-1.8l-10.9-8.8c-.4-.2-3.3-.9-3.9-1.1-2.4-1-4.8-2.5-7.1-3.7-.3 0-4.5.5-4.5.5-1.4.7-7.7 5.1-9.4 6.2l-3.9-1.2-3.7 1.7-2.5-.9c-1.3.2-5.9 3.2-6.8 3.9s-1.8 2.2-2.5 3l-.3.3c-1.1 1.4-3.4 4.5-4.5 5.6-1 .9-3.8 2.6-5.1 3.5l-.8.1c-1.3.2-2.6.6-3.9.9-.5.6-5 5.1-5.3 5.3-.2.1-4 1.1-4.3 1.2-.2.1-4.3 4.4-4.8 4.8-.2 0-1.9.3-1.9.3l-14.2-1.8c-.8-.5-4.9-2.6-5-2.7-1.8-1.8-2.9-4.7-5.1-6.4l-1.7-1.3-4.5-1.6c-.9-.3-1.4-.4-2.2-.8-.1 0-3.5-2.4-3.5-2.4l-4.4-6.3-2.2.2c-.1.4-.7 4.3-.8 4.5 0 0-1.6 1.9-1.7 2.1h-1.5l-.8.6c-2.3.3-6.2-.4-8.5-.9l-6.9-.9-19-8.1c-.2.1-2.2.9-2.2.9-2 1.7-4.7 4.8-6.7 6.8l-2 .8c-4.2-.6-9.1-4.2-13-5.9-1.2-.5-2.7-.5-3.9-1l-1.5-1.4-.6-.5-1.8-4.7c-.2-.1-1.9-1.4-2-1.4l-2.3-.3c-.5-.1-.7-.2-1.2-.2-1.5.3-5.4 1.8-7 2.3-2.3-1.5-4.6-3.2-6.7-5l-3.7-3.1-5.8-2.3c-1.1-.5-1.7-.9-2.9-1.2-1.4-.3-2.2-.1-3.6-.2l-7.2-.4-5.9-1.7-1.1-2.9c-.2-.3-.5-.4-.7-.7l-1.5-1.4c-.5-.3-.9-.3-1.5-.5l-2.9-.9c-2.5-.6-5.3-.6-7.8-1.3-1.6-.4-3.1-1.5-4.6-2 0 0-4.8-.4-4.9-.4s-1.1.3-1.2.4c-1.1.3-2.3.6-3.4 1-2.3 1-4.6 2.2-6.8 3.2l-3-.2-1-1.2.6-.8v-2.8l-1-1.2-5.5-1.5-4.2-4.6-3.1-.5-6.5 3.8s-1.7.4-1.8.4-3.1-.5-3.1-.5c-3.1-1.5-5.9-3.9-9-5.5-1.3-.7-4.6-2-6.1-2.4-3.2-1.1-6.7-1.4-9.9-2.6-2.1-.7-6.2-3.3-7.8-4.8l-1.8-2c-.4-.4-.7-.5-.9-1 0-.1-.9-3.6-1-3.9.9-1.9 4.5-9 5.1-10.5.2-.6 0-1 0-1.7 0-2.2 0-4.5.7-6.6l-1.2-1.3-5.7-.2-5.4-3.4c-1.1-.7-1.7-1-2.7-1.7 0 0-2.1-2.5-2.1-2.5l-.9-4.9c0-1 .7-3.6.9-4.8l-.1-.2m-102.9-105.7-2.3-4.6-4.7-1.2c-.8-.5-1.4-2.1-1.5-3.1.8-1.4 1.7-4.3.7-5.8-.1-.2-1.3-2.2-1.4-2.2-2.3-2.2-5.1-4.2-7.6-6.3l-.4-4.1-4.3-2.1c-1.4-1.2-2.5-3.4-3.9-4.7-.6-.6-1.1-.8-1.8-1.3l-3.5-2.7c-1.2-.8-2.7-1.6-3.9-2.3l-12.1-7.2-2.2-2.5c0-.1-.8-3.2-.8-3.4l1.1-2.8 3.2-1.8-.9-1.6-6.9-.9c-1.6-.9-3.7-3-4.4-4.7l2.2-2.4-1.6-3.7 1.8-3.3v-1.1l-1.8-2.4 1.9-2.6c-.3-1.5-1.8-4.9-2.9-6-1.5-1.5-3.6-2.5-5.2-3.9l-1.9-2.1c-.4-.4-.6-.6-.9-1l-.8-2.3 1.9-3.9c-1-.7-2.3-1.5-3.2-2.3 0 0-.6-1.2-.7-1.3.2-.4 1.8-4.7 1.9-4.8.2-1.3 0-5.2 0-6.7l-.7-1c-1.4-.6-3.1-1.3-4.4-2.1-.8-.5-1.7-1.6-2.4-2.3 0-.2-.1-2-.1-2 .4-1.5 1.3-3.2 2-4.6l-.5-2.3c-1.4.1-3.5 1.1-4.4 2.2l-1.8.1-1.1-1.7c0-.2.5-2.5.5-2.6s-.6-2.3-.7-2.5l-1.4-.6-7.8 3.4-12.4-10.1c0-.5.6-8.9.5-9.2-.5-2.4-1.8-4.7-2.3-7.1-.4-2.4-.6-5-.9-7.5-.8-.9-2.3-3.1-3.2-3.7 0 0-1.9-.7-2.3-.8l-3.1-4.6s-4.1-2.4-4.4-2.6c0 0-.6-.9-.7-1l.7-2-.7-2-4.1-.6-1.8-1.9c-1.4-2.5-2.5-5.9-3.9-8.3 0 0-2.8-2.5-2.9-2.6s-3.7-1.4-4-1.5c-1.4-1.5-1.2-5.6-1.8-7.5 0 0-1.6-2.6-1.6-2.6-.1-.1-1.8-1.2-2-1.3-.8.6-2.9 1.7-4 1.3l-1.7-4.5 1.9-5.3-1-2.2-2.4.1-2.7 2.3-3 .3-10.1-7c-1-.6-2.2-.8-3.2-1.4-2-1.3-3.9-2.9-5.7-4.3l1.9-3.4-.5-2.6-6.2 2.2-2.3-.9c-.1-.1-1.1-1.5-1.1-1.5-.6-1.9-.3-7.7-.6-9.9l-.7-1.4c-.2-.4-1.5-2.7-1.7-2.9-1.8-1.5-4.1-2.6-5.8-4.1-1.1-1-2.4-2.8-3.3-4-.4-2.8-.6-5.8-1.1-8.5 0-.1-1.3-3.7-1.3-3.7l-4-4.6c-.8-.9-1.1-1.5-2-2.3-.2-.2-3.5-1.3-4-1.6l-1.5-1.3c-.3-.2-.5-.3-.7-.6-1.7-2.4-3-5.1-4.6-7.5-2.4-3.5-5-6.9-7.5-10.2 0-.1-1.3-.9-1.4-1-1.4.1-5.6-.3-6.8-1.3-1.3-1.2-2.3-3-3.7-4.1-2.8-2.4-7.2-5.4-10.3-7.7l-2.5-1.9h-15.3l-12.8-13.3c-2.2-.8-8.1-2.6-10.6-2.2-.1 0-2.6 1-2.9 1.1l-1-.2c-.1-1.1-.9-3-1.8-3.6l-2.8.1-2.4-2.8c-1.2.3-3.9 1.3-5.1 1.4-1.9.2-4.1-.4-6-.3-2 .1-6.6 2-8.6 2.7-1.2.3-2.6.8-3.8.9-1.7.2-3.5-.2-5.3 0-.6.1-2.7 1.3-3.1 1.9-.1.2-1.6 2.3-1.7 2.3-1.2 1-3 1.8-4.3 2.6l-.2.1-2.5-3.7-2.5 1c-1.3-.5-4-1-5.4-.6-1.3.4-3.6 2.1-5.1 1.4l-1.3-2.8-4-.5c-1.9.1-3.9.8-5.9.9 0 0-6.6-2.8-9.1-4.8s-6.5-2-9-2-5-1-7.5 1-5.5 3.5-5.5 3.5l-5.2 4.7c-.1 0-5.5 3.2-5.9 3.4 0 0-1.1.2-1.2.3l-1.3-1.3-.5-.1c-1.7-.2-4.6-.8-6.2-.8-1.5 0-3 .3-4.5.4-2.4.2-11.4.6-11.4.6-.1 0-4.5-1.7-4.9-1.8-.2-.1-.4-.2-.5-.3-1.2-.6-2.9-1.2-4.1-2-1.8-1.2-4.2-3.8-5.9-4.8-1.4-.8-5.1-1.9-6.8-2.6-1.2-.5-3.6-1.6-4.7-2.4-1.2-.8-2.4-2.1-3.4-3.1 0 0-.4-.1-.4-.1-1.4-.4-3.2-.8-4.5-1.4-1.1-.5-2.3-1.6-3.3-2.2-.1-.1-.2-.1-.3-.2-3-2.4-6-4.7-9-7.2-.3 0-10.9 1.6-11.5 1.5-.2 0-6.5-1.5-6.6-1.5 0 0-4-2.8-4.1-2.9-.6-.6-1.1-1.6-1.7-2.2-.1-.1-2.3-2-2.4-2-1-.6-2.6-1-3.8-1.4-2.8-1-5.5-1.9-8-3.4-.8-.5-1.8-1.7-2.5-2.3-.1 0-.2-.3-.2-.3l-1.7-2.8c-.2-.4-.4-.5-.6-.9m-87-1.3c3.6-.3 6.8 4.1 10.5 5.3 3.1 1 6.4.4 9.5 1.8 1.8.8 3.2 2.3 5.3 2.3h1.2c.6 0 3.4-1.6 4.3-1.9 1.9-.7 4.1-1.1 6-1.8.5-.2.9-.5 1.3-.7 2.7-.7 5.9-.4 8.7-.4s5.6-.9 8.4-.9c1.3 0 2.5.4 3.8.4.6 0 1.2-.1 1.8-.1 4.9 0 7 1.1 12.4-.1 1.6-.4 3.4-.4 5-.8 1.1-.3 1.5-.9 2.9-.8 1-1 5.4-3.2 6.4-1.5m1080.1-541.1-5.1-.6-.5-.9 1.2-2.2c-.4-1-.6-1.4-1.3-2.3l-1.8-2.1c-.8-.9-.6-.9-.9-2l.7-2.5c-.2-.4-1.3-3.1-1.3-3.2.3-.6.8-1.3 1-2-.1-.5-.3-1.1-.6-1.6l-1.9-.6c-.3.4-.5.8-.8 1.1l-2 .4-1.5-1-1.2.9-.8-1.1 1-4.3-1.4-1.1-1.9 1.6-1.2-.9.3-.8 1.1-.6c.2-1.6.3-3.2.5-4.8.1-1.2.1-2.3-.6-3.3l-2-.4-.6 1c.2.9.4 1.8.6 2.7-.9 1.6-1.7 3.2-2.6 4.7l-2.2-2.5-2.5.2c-.6-.5-1.2-.9-1.9-1.3l1.4-1.9c1.2 0 2.4-.1 3.5-.1.8-1.4 1.6-2.7 2.3-4.1-.9-1.2-1.9-2.5-2.8-3.7-.5.3-1.3 2.9-1.6 3.5l-2.4-1.6c.6-.9.5-2 1.1-2.9v-2.1l-.6-.2c-.9.2-1.5 1.5-2.1 2.4 0 0-.7 2-.8 2.1l-1.5-.3-1.1-1.2 1.3-3.5-1.4-2.6-1.2.8-.4 3.4-1.3-.2c-.4-.9-.9-1.7-1.3-2.6l-6.5-2-1-1.1" stroke-linejoin="round" stroke-miterlimit="3.8637" stroke-width="1.9945"/><path d="m781 623s-6.4 7.4-10.3 8.6-6.5 3.9-8 5.1-6.2 6.2-7.4 6.8-4.8 4.2-5 7.4c-.3 3.2-1.2 8.3-2.9 9.5-1.8 1.2-3.6 1.1-4.8 3.8s-2.6 8.7-.6 11.6c2.1 2.9 4.5 5.9 5.9 8.9 1.5 2.9 6.8 10.6 6.8 11.8s2 6.2 2 6.2m142.6-93s6 5.5 11.5 5.5 11 3 13.5 5 6.5 4.5 9.5 10 3.5 4.5 9 8.5 4.5 5 10.5 5 11.5-.5 14 1.5 8.5 5.5 8.5 5.5 6 6 8.5 7 7.5 4 8.5 6.5 10 31.5 10 31.5 1 2.5 3.5 3.5 6 3.5 6.5 6.5 2 8 3 10.5 5.5 6 5.5 8.5 2.5 10.5 5.5 12.5 5.5 5 5.5 5 .5 2.5.5 5 2 5 2 5 3.5 6 4.5 9.5 2.5 6.5 2 10.5-1 6 1 10 5.5 7 5.5 7 2.5 13 4 18.5 7 12 7 12 4 16 5 18.5 7.5 14.5 7.5 14.5l7.5 15 5.8 16.7m-265.6-256.2s4.5-7.5 4-12-3-5.5-.5-8.5 2.5-5 1-7-3-4-2-6.5 0-7-1-9.5-3.5-8.5-3-11-.5-8 2.5-12.5-1.5-6.5 5-8.5 8.5-5 8.5-5 3.5-12.5 6-14.5 2-2.5 2.5-8 5-11 7-13 5-7 5-7 0-8 4-10.5 10-6.5 10-6.5.5-.5 7-.5 13-7 13-7 .5-2.5 4-2.5 8.5-3.5 10 1 8 6.5 8 6.5 3-1 6-2.5 6.5-1.5 8.5 0 2 1.5 5.5 2 3.5 1.5 3.5 4.5-1 6.5 5 3.5 9.5-5.5 13-1-6 5 7.5 5 15 2 17 3.5 4.5 1.5 7.5-1.5 13-5.5 16.5-3.5 3.5 3 9-1 5.5-4 12.5-3.5 11-2.5 14-2.5 3.5-.5 10-5.5 7-6 10.5-10.5 7-7 7.5-12.5 1-12 4-13 4-2 4.5-5-1.5-4.5 3.5-6.5 5.5-4.5 5.5-4.5l3.8-10.8m-306.1 300.3h2.9c1.8 0 2.1.5 3.3 1.8 1.2 1.2 3.5 3.3 3.5 3.3s-.7 3.6 1.8 5.4c2.4 1.8 5 4.4 5 4.4s2.9-.5 4.1 3.9 4.2 12.3 4.2 14.2.6 5.4 2.1 5.9c1.5.6 3.6 1.2 5.1 1.2s6.2-.6 7.7-.6 4.7 1.2 4.7 1.2 6.7 5.9 8.3 6.2c1.5.3 3.6 1.4 3.9 2.3s3.7 3.8 5 6.8c1.2 3 5.3 6.5 7.1 6.5s7.3.6 8.6.6c1.2 0 3.3-.9 4.5.6s1.7 1.2 3.2 3.6c1.5 2.3 3.3 4.1 5.3 4.1 2.1 0 5.3-.9 6.5 1.2s1.7 2.4 3.2 2.7 3 .9 3 2.9c0 2.1 2.1 5.4 4.1 6.5 2.1 1.2 3.6 1.2 3.9 2.9.3 1.8-.6 1.4 2.1 2.1 2.6.7 3.5 3.3 3.8 4.5s.9 3.9 1.5 5.6c.6 1.8 1.2 3.2 3.5 2.9s4.8.6 4.8.6l2.9 3s1.7.9 3.5.6 3-1.2 4.5 0 .9 1.2 4.2 1.2c3.2 0 6.2-.3 5.9 1.8s-1.2 4.5-1.2 5.6c0 1.2.2 4.1 2.3 4.7s3.9.6 5.3.6c1.5 0 3.9-2.1 4.8-3.8.9-1.8 3.7-4.5 6.2-5.1 2.4-.6 5.1-4.1 9.2-4.4s5.5-1.8 6.7-2.7 4.1-1.8 6.2-1.8 4.9-1.3 6.3-1.7 5.9-1.3 7.6-1c1.8.3 3 .6 4.2-.9s1.5-2.4 3.5-2.4c2.1 0 9.5-.9 13 .6s8 2.4 9.7 2.4 5.3.9 5.3.9 2.7.8 3.9 3.2 4.5 8.3 4.5 8.3 4.1 9.5 5.6 11 2.7 2.9 3.3 4.7 4.1 8.3 4.1 8.3 3.3 3 3.3 4.8 0 1.2 1.8 1.8 4.7 2.3 4.7 2.3l6.5 5.9 1.8 3.9s1.5 2.6 3 2.6 2.9-.9 4.4.9 10.1 8.6 10.1 8.6 3.5 3.9 4.7 5.6c1.2 1.8 3.6 5.4 3.6 5.4l3.8 4.7m-456.1 50.9s5-2.5 5.5-7.5 1-13 1-13 .5-3 2-5.5 3.5-3.5 1.5-8-3.5-9.5-3.5-9.5 4-3.5 4-7.5 1-15 1-17.5.5-17 .5-17 3-12 9-17.5 13-9.5 15.5-11 5.5-1.5 8.5-1.5 9.5-3.5 12-4.5 13-13 16.5-14.5 7-1.5 10-3 15-6.5 18-8.5 8-4.5 8.5-7 2-5 5-6 9.5-8 9.5-10-.5-5-.5-7.5-1-9.5-5-9.5-10.5 1-10.5-3.5.5-8-1.5-10-6-4.5-6-4.5m133.7 237.6c4.9 2.6 9.2.5 12.1.5s11 4.9 17.8 4.9 12.4.2 16.7 6.4-1.1 28 .8 29.7c2 1.6.7 12.5 2 14.8s1.6 13.8 4.6 15.7c2.9 2 4.3 2 6.5 5.2s7.7 5.4 7.7 5.4m-359.6 39.3c0-2 .1-4.1-.2-6.1-.9-5.4-4.5-19.6-1-23.9 6.9-8.8 16.3-5.8 18-6.9.6-.4 1.3-.8 1.9-1.2 3.8-2.6 3.4-7.4 4.5-11.3.4-1.3 3.4-3.8 4.5-5 2.8-3.2 4.2-7.2 5.2-11.3.2-.9.7-3.7 1.1-4.3l5-7.4c1.1-1.6 5-2.2 6.6-2.7.8-.2 1.4-.8 2.2-.9 2.9-.7 7.1-.4 9.3-3 .5-.6.7-1.4 1.1-2s1.1-1 1.6-1.5c1.5-1.7 2.7-3.7 3.5-5.8m-423.8-2.1c1.7 4.2 3.2 9 6.8 12 .6.5 1.3.7 1.9 1.2 1.1.9 1.9 2.4 3.3 3 1.8.7 8.5 2 10.5 1.9 3.1-.2 5.6-.8 8.7 0 2.7.7 3.9 1.8 6.1 3.1 2.1 1.2 4.5 1.7 6.6 2.8 3 1.6 6.5 4.3 9.4 5.9.7.4 1.5.5 2.2.9.6.4 1 1.1 1.6 1.6s1.3.7 1.9 1.2c1.2 1 2 2.1 3.4 2.8 2.2 1.2 7.1 2.1 8.9 3.5 1.1.9 2.1 2.1 3.1 3.1 1.3 1.3 2.7 8.6 5.2 10.4.6.5 1.2.9 1.9 1.4 1.2.8 5.9.5 9.4 3.9 2.1 2 1.7 3.3 2.9 5.6.4.6.9 1.1 1.2 1.8.4.7.5 1.6.8 2.3 1.5 3 5.4 5.8 8 7.6 1.4 1 3.3.8 4.8 1.5.6.3 1.2 1 1.8 1.4 2 1.5 4.5 2.5 5.2 5.2.6 2.4 1.7 3.3 3.7 4.5 2.9 0 8.5-.4 11.1.7 2.1.9 5.4 4.4 6.8 4.6.9.2 3.3.4 4.2.5 6.9-3.2 9.2-5.5 17.4-4.3.6-.4 1.3-.8 1.9-1.4.5-.5.8-1.3 1.2-1.9 2.3-3.4 6.2-10.3 10.3-11.5 1.4-.4 7.1-.7 8.4-.3.8.2 1.4.8 2.2 1.1 2 .8 5.9 1 8 .5 1.8-.4 2.5-1.5 4-2.2.8-.3 1.7-.3 2.5-.5s1.4-.7 2.2-.9c3.1-1.1 6.6-1.1 9.5-2.7 1.5-.8 4.4-3.4 5.6-3.8 1.7-.5 3.7-.2 5.5-.5 2.5-.4 2.6-1.2 4.4-1.9 1.9-.7 4 .2 5.9-.3 2.4-.6 3.5-2.6 5.3-4.1 3.2-2.7 6.3-1.6 10-2.4 1.4-.3 5.8-3.8 7.5-4.9 1.8 0 4.1-.4 5.8-.3 1.5.1 3.1 1.4 4.7 1.6 3.9.5 7.4-.8 11.1 1.2 1.7.9 5.8 3.8 7.4 5.1.4.3 1.2 1.5 1.6 1.6l4.4 1.9c.7.3 7 .3 8.3.4.9.1 1.9.3 2.8.4 4 .3 8 .2 12 .3 1.8 0 3.7.3 5.5.1 1.7-.2 3.3-.8 5-1.2 2.4-.6 9-1 11.4-.5 2.5.5 4.5 1.8 6.8 2.7 1.6.6 3.3.8 4.9 1.2 4.3 1.1 8.8 2.6 13.3 1.8m-389.1-337.9.1 5.7s2.5 4.5 5 5 5 2 8 .5 3.5-3.5 6-1 5.5 6 11.5 8 9.5 4 11.5 9.5 5 10.5 8 15.5 2 6 5.5 9 9 9 11 10 3.5 1 6 1 10 1 10 1l7 4.5s8 4 10.5 7.5 4.5 6.5 4.5 9 0 6 0 8.5-2 4.5-.5 6.5 3 4 3 6.5 2 8.5 2 8.5.5 3.5-1 5.5-3 3-1.5 7 3.5 9.5 5.5 10 4 2.5 5.5 5 5 9.5 5.5 12-1.5 14.5-1 17-1 14.5-1 14.5 0 5.5-4 5-9-.5-9-.5-3 3-6 3.5-14.5 7.5-14.5 7.5l-4 3s-1 2-3.5 0-7.5-5.5-10-5.5-10-3.5-11-6.5-3-7.5-5-10.5-5-10.5-7.5-12-4.5-3.5-7-3.5-16-1-21.4-1.5c-5.5-.5-7.5-.5-10 .5s-9 4-11 4-6.5 1.5-5 5m1.9-185.8c-.6 1-1.5 1.2-2.5 1.6-4.4 2-6.2-.8-8.8-.3-3.1.6-5.5 8-8.3 9.7-3.3 2.1-14.5 1.7-18.7 1.5-2.3-.1-4.7-.7-7.1 0-5.4 1.6-7.1 8.2-12.1 8.8l1-.3c-2.1.9-7.2.2-9.3-.5-2.5-.9-4.8-2.8-7.1-4.2-1-.6-2.1-1-3-1.6s-1.6-1.4-2.5-2-2.1-.9-3-1.5c-4.2-2.8-8.4-6.4-11.8-10-.7-.8-1.8-1.3-2.4-2.2-.6-.8-.9-1.8-1.5-2.7-1.4-2-3.3-3.6-4.7-5.7-1.4-2-2-4.3-2.9-6.5-.5-1.1-1.3-1.9-1.9-2.9-.7-1.3-.9-2.9-1.7-4.2-.3-.4-.7-.8-.9-1.2-1.1-1.7-1.7-3.7-2.9-5.4-1.4-2-2.9-4-4.3-6.1-.8-1.3-1.3-2.8-2-4.2-1-2-3.6-5.7-5.4-7-2.2-1.6-8.3-.9-11-.8-1.1 0-2.3-.2-3.4 0-2.8.4-5.5 1-8.4 1.1-2.8.1-6.1-.3-8.8.1-.5.1-1 .3-1.6.4-2.3.3-7.2-.7-9.6-1.1-2.6-.4-4.7-1.5-7.1-2.6-.2-.1-1.5-.5-1.6-.5-1.2-1.3-4.1-4.6-5.6-5.3-1.7-.8-3.8-.5-5.5-1.4-1-.5-1.9-2.4-2.4-2.6m18.5-172.3c-.4-1.2-.5-3.4-.7-4.7l.4-.3c.1-.4 1.5-4.6 1.6-4.7l3.3-3.5c.6-.4 1-.4 1.6-.6l3.2-1.2c3.7-.9 7.7-1.5 11.5-2.2 0 0 1.5-1.3 1.6-1.4l.6-1.9-.6-2-3-2.7c-.7-1-2.1-4.6-2.6-5.8-.2-.5-1.2-2.8-1.3-2.8-1.8-2-5.7-4.3-8.1-5.4l-.6-2.3c-.2-.1-1.7-1.5-1.8-1.6-.6-.9-1.1-2.4-1.6-3.5l.6-2.1.4.7 6.2 1.9 1.2-2.1-1.3-.1-.4-1 1.8-2.4.1-2.7c-.3-.1-.7-.2-1.1-.2l-.9-1.6c1.2-2.2 1.7-2 1.3-4.3l.9-1.4-.6-1.3-3.1-.7-3.4-4.7c-1.1-.1-2.8.5-3.5 1.4l-1.6-1.3h-2.1l-1.2-1.2c.2-.8.4-1.7.6-2.5l-1-1.7-2.4-1.2c.4-1 .9-2.1 1.3-3.1l-.6-1.7-.3-.2c-.2-.1-2.7-1.6-2.8-1.7-.8-.9-1.1-1.6-1.8-2.6l-3.5-5.2c-1-1.7-2.1-5-2.9-6.9-1-2.4-2-4.9-3.1-7.3l.6-1.2c.1-.2 1.1-2.3 1.1-2.4.3-1.4 0-3.6.4-4.9.2-.8 1.9-2.9 2.3-3.8.4-1.1.3-2.7.6-3.9.2-.6.7-1.4 1-2 .6-1.2 2.1-2.1 3.1-3 0-.2.6-3.2.6-3.3l-1.9-5.9.7-1.3 1.2-.5.4-1.4c-1.3-1.5-1.9-2-2.3-2.7-.5-.7-.7-1.5-1.7-3.8 0-.1-.1-.2-.2-.3l-1.2-.6c-3.1-1.6-2.4-1.3-4.3-3.7l-1.8-.7c-.7-1-1.6-2.3-2.4-3.2-.1-.1-3.2-2.2-3.2-2.2l-5.8-.7-2.8-4.2v-.4c.2-1.8.3-1.3-.4-3-.1-.4 0-1.4 0-1.9.6-.8 3.8-4.2 4.2-4.9.4-.8.6-2 .9-2.8l2.1-1c2.4-1.2 2.4-1.5 4.4-3.5l1.4-1.3 4.3-.8 3.2-3.4 1.2.3c1.8-1.8 3.7-3.6 5.5-5.3l1.6 2.2c-.3.4-.6.9-1 1.3l.9 1 2.3-1.7.3-1.6-2.4-4.5.5-1.3c.9.2 1.9.3 2.9.4l1.1 2.6 1.7 1.2 1-2.3c-.5-2-1.7-5.9-2-7.7 0-.2.3-4.3.3-4.7 0 0 .2-.3.3-.7m263.7 230.1h-11s-2.5 0-4-2-4.5-3.5-7-1.5-5.5 3.5-6.5 1.5-1.5-2.5-4-1.5-3.5.5-3.5-1.5-.5-2.5-2.5-2.5-2.5-.5-2-3 .5-4-1-6-1.5-2.5 0-5 1.5-6.5.5-9-2.5-7-2.5-7-2-3 0-6.5 2-9.5 2-9.5 1.5-3.5-.5-6-2.5-4.5-1.5-6.5 2-8.5 2-10.5 0-6 0-6 1-7 6.5-7 7.5 3.5 10 .5 1.5-8 4.5-10 2-2.5 6-5.5 5-2.5 6-7.5 2.5-6 4.5-8.5 4.5-3 4-7.5-3-7.5-1.5-11 3.5-6 3.5-11.5.5-10.5.5-10.5.5-6.5 3.5-9 4-4.5 6.5-6.5 3.5-3.5 4-6.5-.5-7.5-.5-7.5l-1-7.5m112-22.8c-.6-1-1.1-1.9-1.4-2.5-1-2-5-4.5-5-4.5s-4.5-3-7-3.5-10.5-4-10.5-4-1.5-1-3.5-3-9-8.5-11-9.5-2.5-1-4.5-1-14-1.5-16-1.5-3.5-1.5-5.5-1.5-3-1.5-3-3.5 0-3-2-4.5-7.5-5-7.5-5-5.5-5-1.5-7.5 5-2.5 5.5-6-.5-5.5 2.5-7.5 5-5 5-5m20.5 401.6c7.9-3.3 10.5-3.9 14.7-13.1 4.3-9.2 10.5-16.4 14.4-18.4s7.9-8.9 12.1-10.2c4.3-1.3 35.4-2.6 41.2-7.9 5.9-5.2 3.6-8.5 11.1-6.9s11.1-2.6 13.4-3.6 8.5-3 13.1 1.6 6.1 4.3 8.8 3c2.5-1.3 4.6 1.3 10.1-.7 5.6-2 4.9-3.6 10.1-2.3s18.3 17.1 18.7 23.3c.3 6.2-.7 7.2-.7 7.2m-212.5-35.3c2-7.9 2.9-11.2 7.2-14.4s12.4-10.5 14.7-15.4 2.6-13.8 14.7-19.3c12.1-5.6 13.6-8.9 16.5-10.5s7.4-8.8 9.7-10c3.9-2.1 6.2.5 10.8.2 2.7-.2 7.9-.7 12.1-3.3 2.1-1.4 2.5 4.8 4.1 3.5 3.9-3.3 9.8-6.6 15.7-7.2 5.9-.7 6.1-2.7 11.3-7.7 4.3-4.1 8.5-4.1 11.8-6.7 3.8-3 12.4-1.5 14.7-2.8s7.6-2 10.1-3c4.8-1.7 5-5.7 8.2-5.2 5.5.8 11.1-2.6 11.1-2.6m-356-394.8c4.9 4.3 5.2 5.2 5.2 8.5s0 3.9 2.6 5.2 8.5 3 12.8 3 3.9.7 6.5-2c2.6-2.6 2.6-3.6 5.2-3.3s3.6 0 5.2-1.3 2-1.6 2-1.6.9.5 3.7.5 4.9 1.6 7.2.5c2.3-1.2 6.5-6 9.5-6s6.7 0 8.1-2.1.5-2.8 5.3-3c4.9-.2 10.9-.7 13.4.2s4.4 0 6.5-.9 5.6-1.9 10.4.5c4.9 2.3 7.2 4.2 9.7 3.9s5.6 2.8 7.4 3.9c1.9 1.2 2.5 2.6 5.8 2.6s3.9-1.6 6.5 1.4c2.5 3 7.6 6.5 11.3 7.7s6 2.8 11.3 2.8 9-2.1 11.8-.2 6.2 3.9 9.7 3.9 5.8-.2 8.3 2.3c2.5 2.6 4.2 4.9 8.3 4.9 4.2 0 5.3.2 9 3s8.1 10.4 11.3 9.7 6.2-.9 9.5-.7 6-.7 6-.7m-11.4 116.4c3.9-5.1 5.6-9.7 6.2-12.3s.2-6 4.2-6.7 5.6 9 17.4 10.9 5.8-2.3 15.3 1.6 10 .9 13.7 2.1 17.6-3.5 18.5-4.6c.9-1.2.5-5.3 6-4.9 5.6.5 9.7-1.2 11.1-3 1.4-1.9 4.4-5.1 6.9-5.3s8.1-5.6 10.2-7 1.6-2.8 8.8-2.6 10.9-.2 15 1.6c4.2 1.9 7.6 2.8 9.3 2.3m-15.7 594.7s6.2-1.2 6.7-4.2 1.5-5 3.5-6 1.5-2 4-2.5 2.5-4 2.5-4-1-3.5 2-3.5 4.5-1 4.5-3.5-1-7.5 1-10 4.5-6 6.5-9.5 10-16.5 10-16.5 1-6.5 1.5-8.5 3.5-11.5 5.5-14 5.5-6.5 5.5-6.5 2.5-3 2.5-7-1-7 1-9.5 7-7.5 7-7.5 2.5-1.5 4.5-2 8-.5 10.5-3 6.5-3.5 8.5-3.5 10.5 0 10.5 0 5.5 1 7.5-.5 0-3 5.5-2 9 1 9 1 5 1 5.5-2 3-7 5-3.5 6 5 6 5h9l3 2s3.5.5 5.5.5 4.5 2 4.5 2 7 6 8.5 8.5 2 4 4 4 3.5.5 4.5 2.5 4 4.5 6.5 5 7.5 1.5 10 1 12.5-2.5 15.5-2.5 4.5-2.5 6.5-5 4-7.5 7-9.5 5.5-5 7-8.5 4-6.5 4-10 1-9.5 3-10 9-3.5 9-3.5 4.5-2.5 5-6-1-6 2-7 5-2 4.5-5-1.5-5.5 2-7.5 7-6.5 7-6.5 2.5-6.5 4.5-8.5 4.5-7 4.5-7 .5-3.5-1.5-5-8-12.5-9.5-14.5-8-8-8-8-3.5-3.5-5.5-3.5-2-.5-4-2-3.5-1.5-5.5-1.5-4.5 1.5-4.5 1.5l-3.5 2m-644.4-356.4s1.4.1 3.9.6 3.5-.5 4 3.5 0 5 3 6.5 6 2.5 6 2.5 3.5 2.5 5 4.5 2 1.5 2 5 0 4 2.5 4.5 2.5 2 5.5 2 7.5-1.5 10 0 6 2 9 2 4 0 6-1 6 .5 6 .5 4.5 2 7 2 10.5.5 12.5 1 8 0 9 2 3 4 3 6.5 1.5 5 1.5 5 2.5 4.5 4.5 7 9 16 11 19 4.5 6.5 4 9.5-1 5 1.5 7.5 4 4.5 4 4.5l2 7m-258.2-138.6c2.2-.6 4.4-1.4 6.6-2 1.1-.3 2.2-.3 3.2-.7.8-.3 2.1-1 3-.9.7.1 1.8.8 2.4 1.2 3.4 2.3 2.2 4 4.2 6.7 1 1.4 2.4 2 3.5 3.1.7.7 1.2 1.9 2.2 2.2 1.9.5 8.4.6 11 1 1.7.2 3.3.9 4.9.9 1.1 0 2.2-.4 3.3-.4.7 2.1-.2 4.5 1 6.5 1.2 1.9 3.9 3.6 5.5 5.3.2.2.4 1.1.6 1.5s.6.8.8 1.2c1.2 2.2 1.5 5 3.4 6.8 2.4 2.2 5.2 1.2 6.9 2.4 1.5 1.1 2 3.6 3.1 5 .6.8 3.2 1.6 4.3 2.4.8.7 1.5 1.6 2.3 2.3 3.4.1 9.2-1.1 12 1 2 1.5 3.7 4.4 3.9 6.9.2 1.6 0 3.3.9 4.7 1.1 1.7 2.8 1.9 3.5 4.3l5.3 2.6m-71.8-194.4s2.7 4.5 6.2 5.6c3.5 1.2 4.7 2.3 9.7 1.2 5-1.2 9.5-2.1 11.9-4.5 2.3-2.3 3.5-5.9 5.3-2.9 1.8 2.9 2.7 3.5 5 3.5s5.3.6 5.3.6l7.4 1.1m9.3 8.5s5.2-1.2 7.3 1.1 4.2 4.7 9.5 3.5 8-.6 10.3-1.8 3.9-1.2 6.2 0 8-2.3 9.7.6c1.8 2.9 2.7 4.1 4.5 4.1s11 .7 11 .7m41.1-42.4s-5.6-1.8-6.2-4.1-6.8-1.8-9.7-1.8-8.6.6-10.3 2.3c-1.8 1.8-6.2 5.1-11.9 5.6-5.6.6-5.6 8.9-3.8 12.4 1.3 2.5.8 5.7.9 8.4 0 1.2.4 2.3.3 3.5 0 .6-.3 1.2-.3 1.9 0 1.7.3 3.6.3 5.3 0 2.9-.5 6-.2 8.9.3 3.3 4.4 5.9 4.4 8 0 5.5-9.7 5.6-11.5 9.2-1.2 2.4-.4 7.7.6 10.1 1 2.3 2.3 4.7 2.5 7.3.1 1.2-1.6 10.5-2 11.5-.5 1.1-1.3 1.8-1.6 3.1-.8.5-1.6 1.4-2 2.3-1.5.4-2.5 2-3.3 3.2 1.1 2.3 1.6 3.7 1.5 6.3-1.2 1.7-3 2.9-4.3 4.6l.1-.4c-1.3 1.5-1.2 3.1-1.1 5-.9.6-1.6 1.4-2.3 2.3l-1.5.4c-3.7 4-5.1 6.8-2 11.9.5.8 1.3 1.6 1.7 2.4.6 1.5.8 3.3 1.1 4.9.6 3 2.9 5.3 3.2 8.4-.3.6-.6 1.2-.8 1.8-.5 1.3 2.1 2.9 2.9 3.4 1 .6 2 1.2 3 1.9 1.8 1.3 3.1 4.7 4.6 5.7 2.1 1.3 5.7 1.8 7.2 4.1 1.1 1.7.2 3.4.5 5.1.3 1.5 1.7 2.7 1.7 4.3 0 1.4-2.9 9.5-3.7 10.8-.2.3-2.7 3.2-3 3.5-1.9 1.9-6 .8-5.2 5.1m145.3 83s-4-11.5-4.5-14-1-3 .5-6 1.5-6.5 1.5-8.5 1-5 1-7-1-5.5 1.5-7.5 5.5-8 7-10 5-4.5 7.5-4.5 5-1 5-1 2 .5 4-3 5-2 5-2 6 1 5.5 4 0 6.5 0 6.5 3.5 1 4 3 5 5 5 5 1.5 3.5 2 6 3 2 3 4 2 4.5-.5 5.5-2.5 3.5-.5 5.5 6 2.5 6.5 5 2.5 2 5 2 5.5 1 8.5 1 5 2 5 2l2.5 6.5 3.5 7m787.2-242.7s0-5.2-2-7.2-.6-4.5-.6-4.5c1-3.1.4-2 2.8-4.4l.1-3.8 2.3-3.6c-.3-4.4-.5-8.9-.7-13.3-.1-1 .4-2.1.6-3.1.3-.3 2.9-2.6 2.9-2.6.1-3.9-.3-3.9.9-7.1 0-.1-.1-.2-.1-.3-.7-.8-1.6-1.8-2.2-2.7 0 0-.3-1.5-.3-1.6l-.8-4.3c.1-.2 1.5-2.8 1.6-2.8 0 0 2.4-1.5 2.6-1.6 0-.2-.3-1.6-.3-1.7 1.3-1.4 1.8-1.9 2.2-2.6.4-.6.5-1.3 1-3.1l.5-.2c2.6-.8 2.6-.5 4.8-2.2l.8-.6 2.2-7.4c-.6-1.1-1.1-2.2-1.7-3.3l.3-.3c.5-.5 4.1-1.7 4.6-2.3m-369.4 406.2s-1.5-1.5 2-4.5 3.5-5 3.5-9 .5-8 3.5-9.5 6.5-2.5 8-5.5 1.5-10 4.5-12 17-12 20-11.5 9.5.5 9.5.5l9.5-.5s.5-5 8-8.5 13-11.5 17.5-14.5 3-3 7.5-4 6-4.5 6-6.5 3.5-6.5 3.5-6.5 3.5-1 5-4 4-4.5 6-6.5 1.5-5 3-9.5 2.5-12 6.5-15 6-7.5 6-7.5 8.5-19 9-22.5 2-3.5 5-7 4-8 7-9 5.5.5 5.5-3.5 0-15 0-15 1.5-5.5 2.5-7.5 0-.5 5.5-5 6-9.5 6.5-12 2.5-10 4-12.5 1-7 2.5-9.5 1-5.5 3.5-7.5 2.5-4.5 2.5-6.5-3.7-5.5-3.7-5.5m-158.2-211.2s2.8 2.9 2.8 6.4 2 6.5 4 8.5 1.5 4.5 3.5 6.5 6 3 8.5 3 12.5 1 14.5 2.5 7 4 7 6 4.5 3 4.5 5.5 0 4.5 3 3.5 6.5-.5 5.5 3 1 7 3.5 8.5 3 2.5 2 4.5 0 2 2 6.5 6 2.5 5 5.5-2 5 2 5.5 6 0 7 3 4 2.5 4 0 1.5-3 3-.5 3 5 8 6.5 10 4 8.5 6 1 3 4 3 4 .5 5.5-1.5 1.5-5 3.5-2 6.5-.5 6.5-.5 6.5-2.5 7 1 2.5 5 4.5 4 2.5-5 6-5.5 8.5-2.5 10.5 1 2.5 3.5 6 3.5 6.5-3 9-1 5 3 7 2 2 1.5 8 .5 6-3 7 0 4.5 7.8 4.5 7.8c.6 0 1.3.1 1.9.1l1 1.3-.8 2.1 1.3 1.8-.8 1.6.4.9 1.8.1.7 2.8c.5-.2.9-.5 1.4-.7l.6 3.9c2 2 4 4 6 6l1.9-1.5 1.2-.2 2.2 5.1 3.2-1 .4 1-.7 1.4.6.6c.8-.2 1.6-.4 2.4-.5 1.1 1.2 1.5 1.5 1.7 1.9.3.4.4.9 1.1 2.5l2.8.2 1 2.9 2.3-1 1.2 1.1.9 3.4 6.3 1.7.8 1.1s1.6 6 4.6 5.5 2-3.5 5.5-2 3.5-5 6-1 .5 6 3.5 8 2.5 2.5 2.5 5 0 5 4 4.5 4.9 3.2 4.9 3.2m-864.8 87.8s1 .5 4.5 3.5 3 4.5 6.5 4 8-1 10.5-1 6 1 9.5 1h14c2 0-1 0 4.5-2.5s7-1.5 10-1.5 4-1 7-2 7-4 8-1.5 4 5 4 5 5.5.5 7.5.5 3 .5 6 3.5 7.5 3 7.5 3 3 .5 5-1 3.5-1.5 5.5-1.5 6.5 0 6.5 0 12.5-4 15-4.5 6-1.5 8 0 7.5 5.5 7.5 5.5l12 3.5s5.5 3.5 10.5 3.5 14.5.5 16.5.5 3-.5 4-2.5 2.5-4 5-4 5-2 6-5 2.5-6.5 3.5-9 .5-3.5.5-6 0-6 3.5-5.5 3.5-1 5.5-2.5 1.5-3 1.5-5.5 0-8.5 0-8.5 2.5-11 3-13.5" stroke-linejoin="round" stroke-miterlimit="3.8637" stroke-width=".9977"/><path d="m629.4-9.9c.9 7.4 0 7.4 1.9 10.4s-2.3 8.1-.9 11.6 3.7 7.4.2 11.6-5.8 8.3-8.8 9.3c-3 .9-4.4 1.6-4.6 4.4s-4.2 5.3-6 10-7.2 8.3-10 9-6.7 3.2-8.1 5.6-2.5 3.7-5.6 4.2c-3 .5-11.1 9-12.7 9s-1.9.9-3.9 4.6c-2.1 3.7-4.2 5.6-6 7.2s-4.4.9-5.1 4.2c-.7 3.2-6 9-8.1 10.2s-7.9 2.3-8.8 7.2-8.3 21.3-9 27.1 0 8.1-1.4 9.5-1.4 12.5-3.5 15.5-10.6 7.2-10.6 11.8-3.9 14.1-6.7 15.1c-2.8.9-7.2 3.9-9.7 7.4s-5.8 8.1-8.6 8.6-10.2 5.3-12.5 5.1m-87 99.6s.2-3.5 1.2-5.5 2-3.5 4-5 4.6-.5 6.8-1 10.2-.5 12.7-1 4-1.5 7-2.5 8.5-2 11-1 2.5 2 9.5 4 8.5 5 11.5 5h7s11.6 1.5 11.6 1.5m-194.9 257.9s3.5-11 4-14 .5-9-2-9-8.5 0-8.5 0-4.5.5-5-1.5-3-4.5-3-7-.5-4.5-2.5-4.5-3.5-.5-3-3.5 1-4 .5-6-2-2.5 0-4.5 9.5-11.5 9.5-11.5l3.5-6s1-4.5 3.5-6.5 1.5-.3 5-1.7c3.5-1.3 7.5-1.8 7.5-5.8s0-8 3-8 3.5-1 5-3 5.5-8 5.5-8 3-3 6.5-4.5 7.5-6 9.5-7 2-2.1 4.5-4.2c2.5-2.2 1.2-8.5 3-9.2s7.2-5 8.5-5.5 1.7-1.5 1.7-3.7-.5-5.7.2-8c.7-2.2 0-3.2-1-4.7s-3-5.2-1-7.2 4.5-5.7 4.5-5.7 2-1.5.5-4.5-3.5-4-1.5-6.5 2.5-5.5 1.5-7.5-2.5-3.5-4-6-2.5-4-1-6 3.5-6.5 4-9 .5-4.5 3-3.5 6 0 6 0 .5-4 3.5-4.5 4-1.5 4.5-3.5 1.5-5 5.5-3.5 4.5 2 7.5.5 6.5-.5 7.5-3 1-3 4-3 5 1 6-2.5 1.5-6 3.5-7.5 6.5-5 6.5-7.5-.5-9-.5-9-1.8-3-3.1-5.5m-43.9-187.6c.5-2.5 2.5-10.5 2.5-10.5s.5-3 4-3.5 4-4 1-6.5-4.5-6.5-4.5-6.5l-.5-7.5s0-1.5-2-4-2-4-2-6-1.5-6.5-1.5-6.5l-1.5-4.5s-3-5 .5-5 8-4 8-4 3-5 6.5-3.5 8 5 10.5 2 6-9 8-9 7.5 1.5 10.5-1 10.5-10 10.5-10l5.5-3.5s4 1 7 .5 7-3.5 7-3.5 4.3-7.4 6.3-9.4 3-5 5-6 4-2 4-2m69.6-98.4c1.4 2.8 3.5 5.5 7.1 8.3.9.7 2.9 2 3.5 2.8.7.9 1.9 5.7 2 7 .4 4.3-1.8 9.7.9 13.5 2.1 2.9 4 4 6.8 5.8 2.4 1.5 5.1 3.8 7.2 5.7 1.1 1 1.7 2.4 2.8 3.4.6.5 1.3.8 1.9 1.4.5.5.9 1.1 1.5 1.6 6.1 6 17.1 2 20.3 4.6 3.8 3.1 4 7.6 7.9 10.7.4.3 4 2.3 4.3 2.3 2.6.2 6.3.2 8.7 1.4 3.6 1.8 3.6 3.8 9.2 4.3 1.6.2 4.1.1 5.7-.1 1.7-.2 3-1.1 5-1.2 3.1-.2 6.1.4 9.1.5.9 0 1.9-.1 2.8 0 6.1.5 10.9 5.4 17.3 5.9 3.5.3 6.8-1.9 10.3-1.1 1.7.4 4.2 3.3 6 3.6 2.7.5 2.9-.4 4.9-1.1 2.2-.7 6.1-.6 8.3.1.6.2 1.1.6 1.8.8.9.3 1.9.2 2.8.5 2.2.8 4 2.5 5.1 4.5.4.7.1 2.3 1.5 4.6 2 1 6.8 3.3 8.1 4.9 1.5 1.8 1.7 4.3 2.6 6.3 1.5 3.3 5.6 11.1 8.5 13 1.9 1.3 9.7 4 12 4.6.9.2 1.9.2 2.8.4 1.2.3 5.6 2.5 6.7 3.2 2.4 1.6 5.7 7.7 7.5 8.2l2.4.7c4.7 1.3 15.8-1 18.8 3.1 2 2.8-1 11.6 1.6 15.8.5.8 2.5 1.6 3.4 1.9 5.1 1.6 11.3-.4 15 1.4 5.1 2.4 2.6 13.6 5.5 15.5 1 .7 1.4 1.2 2.3 2 3.9 3.7 10.9 5 15.8 7.2 2.2.9 4.3 2.1 6.3 3.4 2.7 1.8 2.9 2.4 5 4.6 2 2.1 4.8 3.9 7.4 5.3.3.1 2 1.2 2.1 1.2l6.2.5c.8.1 1.9-.3 2.7-.4 1.9-.2 3.8.2 5.7 0 2.9-.3 5.3-.8 8.1.8 4 2.3 8.4 13.6 11.6 13.6.9 0 1.9-.1 2.8-.1l1.8-1.4c.1-.6.4-2.7.3-3.1-1.1-3.9-3.4-7.1-1.8-11.1 2.9-.7 5-.2 7.5 1.4.6.4 1.1 1.1 1.8 1.5 2.7 1.8 3 1.3 5.3 4.2.2 1.5.9 2.8 1.2 4.2.8 3.4-.2 6.8.7 10.1h2.9c1.2-1.5 3.2-5.3 3.9-7.2 2.7-1.1 4.6-1 7.4-.8.6 0 2.4-.2 2.8 0 .6.3 3.9 1.8 4.3 2.3.9 1 2.1 2.2 2.8 3.4.9 1.4 2.5 4.8 4.6 4.9h2.8c1 0 4.5-3.3 5.5-3.9.6-.4 1.4-.6 2-.9 1.3-.8 1.8-1.5 3.3-2 1.8-.7 4.7-.3 6.5.4 3.4 1.4 8.8 5.2 11.5 7.7 1.6 1.5 2.5 3.7 4.6 4.9 2.5 1.4 5.1 1.4 7.7 2.3 1.9.7 8.5 6 9.7 6.2 3.4.5 4.6-.8 6.7-.7 3 .2 6.1.7 9.1.5l.2.3 11.7-4.2c4 0 13-2.6 13-2.6" stroke-width="1.4961"/></g><g stroke-linejoin="round" stroke-miterlimit="3.8637"><path d="m1.5 1106.3c.4.3.7.7 1.1 1 .1.2.2.3.4.4.5.4 1.5.7 2.1.9.9.3 2.3.8 3.2.8 1.8 0 5.2-2.3 6.5-3.5 1-.2 2.4.1 3.2.7.4.3.7.9 1.1 1.2.8.7 2.1 1.2 3.1 1.4 1.4-.4 2.6-1.7 4-2 1.2-.3 6.2.4 7.5.7 2.4.6 2.8 1.6 4.7 2.3 1.1.4 2.5.5 3.6.9s2.1 1.2 3.3 1.5 1.3 0 2.8.6c.6.2 1.6.5 2.1.9.2.1.9 1 1 1.1 1.3.8 4.1.7 5.6.9h.2l-.3-.3.6-1.1 1.2-.3.8 1.2.9-.3c.3-1 1.1-2.1 1.9-2.7 1.7-.1 3.4.4 5.2.4 2.8 1.2 1.3 4.8 2.8 7l1.3.9c1.6.4 3.1-.5 4.8-.3.8.6 1.6 1.2 2.4 1.9 1.5-.4 3.3-.3 4.9-.1.7 1.3 1.6 2.7 2.7 3.6 1.6 1.3 3.7 2 4.8 3.9-.9.4-1.9.8-2.9.9l-.3 1.6.5 1.5c1.1.6 2.7 1.6 3.3 2.7l-1.8-.5c-.8.5-2.5.7-3.4.5-.6-.1-1.2-.5-1.8-.7-1.4-.4-4.2-.7-5.6-.5-.3 0-4.3 1.1-4.5 1.2-.4.2-.9.7-1.2.9-.7.5-1.8 1-2.4 1.6-1.1 1.2-1.5 2.8-2.9 3.8-2.8-1-3.9.2-6.3 1.1-2.7.1-4.8-2.9-9.1-2.5-.8.1-1.8.2-2.5.6l-.7.8c-2.5 3-1.7 4.2-2.6 7.7-.2.6-1.7 4.4-2 4.9-.3.4-.8.7-1.1 1.1s-.5 1-.8 1.4c-1.2 1.5-3 2.9-4.7 3.8-.8.4-1.8.8-2.5 1.4-1.6 1.3-2.5 3.3-4.8 3.9-2 .5-3.6-.8-5.6-.9-.3 0-3.1.1-3.4.1-4 .5-4.4 2.7-6.7 3.5-2.4-.3-4.4-.3-5.9 1.8-.3.4-.5 1-.8 1.4-.1.1-.3.2-.4.3-.7.4-1.3 1.1-2 1.5-1.4.8-2 .3-3.2.5-.5.1-1.3.5-2 .9m489-331.6c-2.5 2-4 3-2 6s2 4 2 7-.5 3 2.5 5.5 2 3 5 3 7.5-3 8-1 0 3.5 3 3 5-1.5 5-1.5-1-3.5 1-5.5 1.5-5.5 1.5-5.5-3.5.5-5.5-.5-7-1.5-7-1.5-3.5-1.5-4-3.5-3-6-4.5-8.5-2.5 1-5 3zm372.6-33 1-6s0-3 0-5-2-3.5-4.5-3.5-2 0-6-1-6.5-3.5-6.5-3.5l-5.5-3.5s.5 2 0 4.5-1 5.5 3.5 5.5 6.5-.5 6 2 4 6 4 6 1.5.5 2 2.5 6 2 6 2zm-499.6-393.1 3.2-.7s.5-1.2 1.5-4.7.5-4.5-.7-5.5-1-3.2-1.2-5.7.2-3.5-1.2-6-4.7-5-4.7-5 .7 3.5-1 5-2.7 3.2-1.2 5c1.5 1.7 3.5 2.2 1.5 4s0 4 0 4 2.5 2 1.2 3.7c-1.2 1.7-.5 3 .2 4 .7.9 2.4 1.9 2.4 1.9zm-235.9-320.8c-1.7 2.2-2.2 6.2-.5 6.5 1.7.2 3 .5 4.2 3.5s5.7 2.7 7.2 2.5 5-.5 4.7-2.7c-.2-2.2-.2-3-1.7-4.2s-5-1.2-3.5-3.5 2.5-7.2-1.2-6.7-4 .5-5-.7-2.7-2-2.7.2c0 2.1.3 2.8-1.5 5.1zm-94-43.8c-1.7 2.7-3.5 6.7 0 6.5s6-1 8 1.5 3.2 4 5.2 5 4.4 5.8 6.2 5.2c1.8-.7 5-1.2 5.8-2.2.7-1 2-2 0-5.2s-3.7-4-5.5-6.2c-1.7-2.2-3.7-3.7-6.5-4-2.7-.2-6-1.2-9-1.7-3-.6-2.5-1.6-4.2 1.1zm35.4 111c1-2 2.5-5.7 2-7.7s-1.2-5.5.2-5.7c1.5-.2 6.2-1.2 6.2-1.2s-.7-2.5 1-4.7 3.5-5.2 4.5-4.5 4.5 4.7 4 6.7 0 4.7.7 6.2 1.5 2.2-.5 4.2-4.2 4-4.5 5.7c-.2 1.7-1 3.7-1.7 5.5-.7 1.7-1.7 2-2.7 2s-2.5-.2-2.5-1.7-1-2.2-3-2.2c-1.9-.1-4.7-.6-3.7-2.6zm21.7 222.4-3.7-3s-1-3.5.7-4 2.7-.2 2-2.5c-.7-2.2-2.7-5.2 4.5-5s4.5-3.7 4.2-4.7c-.2-1 .5-4.7 2.7-6.5 2.2-1.7 3.7-6 3.7-7.5s.5-5.5.7-6.7 3-2 0-4.5-4.7-2.5-5.7-3.5-.2-4.2-.2-4.2 2.2-1.2 4.2 1 4.5 3.2 7 3.5c2.5.2 4.7-1.7 5.2-3 .5-1.2 2.2-3.2 2.2-5.7s-.7-4-.7-6.2-.2-4.7.5-6.2 3.5-4.7 3.5-4.7l1.5 4.5s4.7 2.5 4.7-.5-.2-3.2 1.2-5.2c1.5-2 2.2-4 3.7-4s4.3-.6 4.3.8.9 7.4-.9 8.6c-1.8 1.3-2.3 4.5-2.8 6.3-.5 1.7-2.7 7.7-4.5 9-1.7 1.2-4.7 5.2-4.7 5.2s-1.2 2.7-2.5 3.7c-1.2 1-3 1.7-3.2 4.7s-1 7.5-1.5 8.7-1.7 3.7-3 5c-1.2 1.2-3.2 5.2-4.5 7-1.2 1.7-3 3.2-3 4.7s-1.7 4.5-3.2 5-4.2 2.2-4.7 3.2-1.5 4.2-2.7 4.7-3 2.2-3 2.2zm514.2 570.2s-1.7 4.7 0 7.2 2.5 4.7 2.5 7.5c0 2.7 1.5 3 3 4.7s4.5 7 6 10.5 3.5 7 1.5 10.7-2 6.2-1.5 8.2-.7 8.2 4.5 8 8-1.5 11.7 2.7 6.7 4 10.2 4.7 15.5.5 17.2 2.7 3.2 2 4.7 1.2c1.5-.7 2.7-3.7 5.2.5s7.2 6 9.7 8.5 9 8 9.5 10 1.5 3.7 4.5 5.7 6 4.2 7.2 6.7 3.7 7.2 3.7 7.2l6.2-1.5s-1.2-6.7-2.2-9.5c-1-2.7-5.2-4.2 0-6.7s5.5-7 2.7-6.5c-2.7.5-4.7 3.2-7.2 1.2s0-3.5-3.5-5-4.2-3.2-4.5-6.2c-.2-3-3-6.5-4.7-7.5s-4.2-.7-4-4.2-3.7-6.2-4.7-7-6-1.7-8.7-1.7-7.5 2-10-.2-6.2-2.7-8.2-5.2-6-4.2-6.7-2.7-1.5 7.2-6 1.5-10.2-6.5-11.7-7.5-4.7-2.2-4.7-2.2-3.5-4.7-4-7.2-2.5-6-2.5-8.7.5-3.7-1.5-5.2-3.5-3.7-4.2-5c-.7-1.2-3.2-5.2-3.2-5.2zm-343.4-137c-1.2-.2-2.3-.4-3.5-.5l-.9-.8c.1-1 0-2.3-.4-3.2l-1.6-.8c-1 .2-2.4.1-3.3-.3 0-.2-.1-1.5-.1-1.6.4-2 4-6.3 6-7 .9.1 2.6.7 3.2 1.5.3.8.8 2.1.8 3 .1 1.2-.5 2.7 0 3.9.4.9 1.3 2.7 2 3.4.4.4 1 .6 1.3.9s.5.9.8 1.2c.6.7 1.5 1.4 1.9 2.3.8 1.7.7 4.1.1 5.9-.5 1.3-1.1 2.9-2.4 3.6-.1-.1-.8-.9-.8-.9-.2-.4-.3-1-.4-1.5-.7-1.9-2.5-5.4-2.7-7.2-.1-.7 0-1.3 0-1.9zm-211.1-59.7c-.4-2.2.3-5.1 2.3-6.3.9-.5 1.8-.7 2.7-1.4 1.1-2.1.6-3.2.7-5.1.1-1.1.5-2.3.7-3.4-.5-.9-.7-2-1.1-2.8-.5-.9-1.4-1.5-2-2.3-.8-.9-1.7-2.9-2-4.1-.2-1.2-.3-4.1-.3-5.3.1-2.5.7-5 .5-7.6.8-.7 1.6-1.3 2.4-1.9 2.2-.6 4.8.6 6.2 2.3.3.4.5.9.8 1.4.2.4.6.7.8 1.1.5.9.7 1.9 1.1 2.8.2.5.6.9.8 1.4.2.4.3 1 .4 1.5.7 2.1 1.5 3.7 1.9 5.9.2 1.4.1 3.6.6 4.9 1 2.2 4.7 3.6 5.4 5.3-.2 5.1 2.5 4.4 3.5 6.8l-.6 1.9c-1.7.9-2.4 3.7-3.6 5.3-1-.2-2.1-.7-3-1.2-3.7 1.1-4 3.8-5.7 4.6-.1 0-1.6.4-1.7.4-.4 0-3.2-.1-3.6-.1-.9-.1-4.4-1.3-5.2-1.8-.6-.6-1.6-1.4-2-2.3zm1118.7-530.6c-2.1-1.2-4.8-2.7-6.3-3.5-1.7-.9-3.9-1.4-8-2.3s-4.5-.3-5.7-1.5-5-1.5-11.8-3-8-.9-12.7.6c-4.8 1.5-28.6.9-32.5.9s-4.2 2.7-5.7 4.7-3.2 2.4-6.5 1.5-3.8.6-5 2.4-7.4.9-7.4.9-6.2.9-8 .9c-1.7 0-1.8-3.3-.6-5.1s3.2-3.2 5.6-4.4 1.9-4.4 1.9-4.4-4.9-1.5-4.9-2.7.3-2.4 3.9-3.3 13.3-1.2 15.4-1.2 4.4 0 7.4 1.5 8-.6 9.5-1.2 3.5-2 5-2 2.7-1.2 4.8-2.4 3.2-2.7 2.3-6.2-1.4-3.3-.6-6.6-2.6-8.3-4.1-10.9-3.6-3.6-10.4-6.5-6.8-6-8.3-7.7-5-5.1-5-5.1 4.4-1.2 5.8-.7 12.8-1.9 14.8-2.2 11-3.6 13.9-7.2 6.5-.5 9.1-.2 5.4 0 6.8-1.8c1.5-1.8 3.8-.3 5.3 1.2s7.4 1.1 8.6-3 3.2-.9 2.9 4.1.3 12.8 1.6 12.7 2 6.9 3.2 8.1 8.6 4.1 10.4 4.1c.8 0 4 .4 5.4.9m-599.4 202.5c-1.3.8-2.1 1.3-5.9 2.1s-3.3 3-2.9 5.1-.4 2.9-2.5 4.6-3 1.3-4.6.8c-1.7-.4-4.2 0-5.9 1.7s-1.7 3.8-1.3 7.6 3.8.8 7.6 1.7c3.8.8 9.2.8 10.5.8s3.4-.8 6.3-1.7c2.9-.8 3.4 0 2.5 1.7s0 3.8 2.1 4.6 3.8-3 3.8-5.9 3 .8 3.8 2.9.8 1.7-1.7 3.4c-2.6 1.7.5 4.6.5 7.6s1.3 2.1 3.3 4.2c2.1 2.1 4.2 7.2 4.2 7.2s2.6.4 6.3.4 5.1-2.1 5.1-2.1 1.3 5.1 2.1 7.2.8 2.1-.4 8c-1.3 5.9 0 4.6 2.5 5s15.1 0 15.1 0 3.4-1.7 5.5-1.7h7.1s4.6-.8 7.6-3.3 2.9 2.5.4 5.9-1.7 3.8.8 7.1 2.1 4.2 1.7 7.6c-.4 3.3.4 6.7 1.7 11 1.3 4.2-.4 7.6-2.5 10.9s-.8 9.7-.4 11.8 2.1 6.7 0 9.7-.8 5 .8 8c1.7 3 1.3 5 .4 7.6-.8 2.6 0 8.8 0 10.9s4.6 10.5 4.6 10.5 1.3 4.6-.4 9.7 5 2.9 7.1 1.7c2.1-1.3 5.4 2.5 7.6 5.5 2.1 3 5.8 6.7 5.8 6.7s1.7.4 4.2.4 5.5 2.1 6.7 2.1 19.3.4 19.3.4 6.7-2.6 8-3.4 5.5-2.1 7.6-2.9 3.8-4.6 5.1-6.3 6.3-.4 9.2-3.3c3-2.9 4.2 3.8 4.2 5.9s3.8 4.2 5.5 5 5.5.4 7.6.4 5.1-2.1 5.9-4.6 5.8-2.6 8.4-1.3 5.9 1.7 7.1.5c1.3-1.3 4.2-2.1 6.7-2.1h5.8s3-1.7 5.5-2.9c2.5-1.3 3.8-9.7 4.2-10.9.4-1.3 2.1-9.7 2.6-16.5.4-6.7-2.1-12.2-2.6-13.4-.5-1.3-5-13.5-5-13.5s-6.7-5.5-8.4-6.7c-1.7-1.3-7.6-9.7-8-11.3-.4-1.7-5.1-7.6-8.8-10.5-3.8-2.9-9.7-1.7-9.7-1.7s-9.2-4.6-11.3-6.3-7.6-4.6-8-6.3-5.1-8.4-8.8-11.8c-3.8-3.4-8-13-8.4-16s-5.5-7.6-7.6-8.4-5.9-3.3-8.4-5-4.6.8-8 2.5c-3.3 1.7-2.5 2.5-2.5 5.9s5.4 4.2 5.4 4.2 0 3-1.3 4.2c-1.3 1.3-2.1.8-5.5.8s-6.3-2.6-8-4.2c-1.7-1.7-2.1-2.1-5.8-4.6-3.8-2.5-3.4 0-7.1 1.7-3.8 1.7-4.2-.8-3-2.1 1.3-1.3 2.1-2.6 3-4.6.8-2.1.4-4.6-.8-8-1.3-3.3-3-2.9-5.9-2.5s-2.9-1.7-3.3-3-2.1-4.2-2.6-5.9c-.4-1.7-1.7-2.6-5.4-3-3.8-.4-3.4-1.7-3.4-4.2s-1.7-4.2-3.3-4.2c-1.7 0-1.7-1.7-2.6-3.3-.8-1.7-3.3-2.6-7.1-5.1s-5-2.5-6.3-2.5-5.5 0-5.5 0-6.3-3-8-4.2c-1.7-1.3-4.2-3.3-8-6.3-3.8-2.9-4.6-3.8-8-3.8-3.3 0-3.8-1.7-5.9-3.3s-5.4-2.6-8.4-1.7c-3 .8-2.9 0-4.2-3.3s-.8-1.7-4.2-2.1-6.7-1.7-8.8-4.2c-2.1-2.6-10.5 2.6-9.2 5.5s1.7 3.8 0 6.3-1.7 7.2.4 8 6.3 1.2 8 4.6 2.6 5.5 6.3 5.5 3.3 0 2.1.8z" fill="#c8ebff" stroke="#0978ab"/><path d="m494.2 341.3s2.5-3 3.5-3.7 3.2-.2 4.2 1.5.7 2.2 3.7 2.2 4.2 1.2 6-1c1.7-2.2-.7-3.7 2.7-5.5 3.5-1.7 4.5-1.5 5.7-.5s4.2 2.7 6.2.2 3-4.5 4-5.7 2-.2 3.5-.2 6 1.2 6 1.2 4.2 5 6 7c1.7 2 3 2.7 5.2 2.7s4.7.5 6.7 1.7 9.2 4.5 11.7 6 3 .7 4.5-1.5 6.7-8.2 9.5-10c2.7-1.7 2.7-2 7.2-4.2s4.7-5.5 4.5-7.5.2-9 .5-11c.2-2-.2-3.2 1.5-3.5 1.7-.2 6 .5 9 1s4.5-1 6.2-1 7.2-1 7-3 0-5.2 2-6c2-.7 5.5-2 5.5-2s2.5 1.2 5 3.2 5.5 3.2 7.2 1.7 2.7-4.7 5-2.7c2.2 2 2.5 3.7 4 3s5.5.2 6.5 1.7 4.7 6.2 6.2 8c1.5 1.7 6.2 5.7 7.7 6 1.5.2 5 1.5 5 1.5s5.7 4.2 7.2 6c1.5 1.7 6.2 4 6.2 4l.7 4.5 4 3.7m-165.1-250.2s1.8 2.1 1.8 4.5-1.6 3.2-5.6 3.2-2 2.8-2 2.8l-.8 10.8s.8 4.4 3.6 6.4 2 2-1.2 5.2 1.2 6.4 3.2 6.8 5.2-1.2 7.6-1.2 5.6 2.8 6 7.2 2.8 5.2 5.2 6.8 1.2 5.6 1.2 5.6-1.6 0-4 0-5.2 4-5.2 4-1.6 4.4-5.6 4.4-9.2 6.8-11.6 9.6-9.6 1.6-9.6 1.6-5.2-6.8-7.6-8.4-5.2.8-6.8 2-2.4 4.8-2.8 6.4-1.2 4.4-6 7.2-2.8 5.6-2.8 5.6 2.4 3.2 4 4.8 2.4 2.4 4.8 3.6 1.2 6.8 1.2 6.8 3.2 2.8 4.8 4.4 2 1.6 4 1.6 6.8-.4 8.8-1.2 6.4-3.6 6.4-3.6l3.6 2.4s1.6 1.6 1.6 4.8.4 2.4 2 5.6-2.4 9.2-2.4 9.2-3.2 4.8-6 5.6-2 3.2-1.2 4.8 1.2 2.8 2.4 4.4 1.6 5.6-.8 7.2-.8 6 0 8.8-.8 5.6-.8 5.6l-6.8 10.4s-7.2 0-8.8 0-6 .8-7.6 2-4 0-5.6 3.2-4 3.2-6 3.2-2.4 1.6-5.6 3.6-4 .8-6.8 2.8 1.2 5.2 4.8 5.2 7.6 4.4 7.6 4.4l1.2 9.2 4.8 1.2v3.2c0 1.6.4 2 2.4 3.2s2.4 6 2.4 7.6 0 4-2.4 4.8-.8 4.8-.8 4.8l-4 8.8 9.6 9.6v7.2c0 2-.8 2.4-2.4 4s-5.2 1.6-5.2 1.6.4 5.6 2.8 8.8 2.4 3.6 1.2 6.4-1.6 5.6-1.2 7.2.8 4 .8 6.8 1.6 5.6 1.6 5.6 13.2 1.6 16 1.6 3.2 2.8 3.6 4.4 4 10.4 4 10.4 2.4 2 2.4 4-.4 3.6-2.4 4.4-3.2 4.4-3.2 4.4 2 6.4 2.8 8.4 6.8 2.4 6.8 2.4l7.6 1.2s2 1.6 3.2 4.4 2.4 5.2.4 7.2-.4 4.4-1.6 7.6 0 4 .8 6 .8 3.2.8 6 1.2 12.4 1.2 15.2 3.6 8.4 3.6 8.4l1.2 6s1.6 2.8 3.2 5.2.8 4.4.8 4.4l1.2 7.2-4.8-.4s-1.6 3.6-1.6 6 2.8 7.6 2.8 9.2 3.2 6 4.8 8.8 3.2 5.6 5.2 7.2 5.2 5.6 5.2 5.6l4.4.4 3.2 7.2s4.4 2 4.4 4.4-.4 3.2 2.8 2.8 3.7 4.5 2.4 6.1m-219.9-16.6s2-3.7 2.3-5.7 1.3-7 1.3-7 0-4.3-.3-5.3.7-2.4 2-3.3c1.3-1 2-1 2-3s1-6 5.3-6 2.4-3.3.7-5-3-2.4-3.7-4.3-1.3-3-3.3-2.7-5.7 1-6.7 1.3-1.7-.6-1.7-2.3-.3-11-.3-12 3-4.7 4.6-5.3c1.7-.7 3-1.7 4.7-.7s4 1 4 1h2.3s1-2.7.3-4.6c-.7-2 0-10.3.7-12s2-3 2.7-4 3.6-6.7 3.6-6.7l3.6-5.3s4.8 0 6.8-.4 5.2-5.6 6.8-6.8 3.6-3.6 1.2-5.6-5.1-4.4-3.2-7.6c2-3.2 2.8-8.8 2.8-11.6.4-2-1.6-10.4-1.6-13.2s4.8-4.8 4.8-4.8l3.6-1.2s1.2-2.4-.4-4.4-.4-7.6-.4-7.6 3.2-1.6 4.8-2 2.4-3.6 1.2-5.6-.4-7.2.4-10-3.2-6.4-5.2-8.4-2.4-1.6-4.4-1.6-4.4.8-6.4 2.4-5.2 1.6-6.8 1.6-3.6-.4-5.2-2-6.4-2.8-6.4-2.8-.4-4 0-6-3.6-3.6-5.6-5.2-4.4-3.6-6.8-4.4-2.8-.4-2.8-2.4.4-2.8 2-4 1.2-5.2 0-6.8-3.2-5.6-3.2-7.2 1.2-6.8 1.6-8.4 0-3.2-1.2-6-5.6-5.2-7.2-6.4-5.2-2-7.6-2-3.2-.8-5.2-3.6-3.2-1.2-4.8-.4-4 0-4 0l-4.4-2.8s-2.4-.8-5.2-2.4-6.8-1.2-6.8-1.2-3.6 1.2-6 1.6-.8 3.2-.8 6-4.8 3.6-6.8 4-5.2 1.6-7.6 1.6-9.2-5.6-9.2-5.6-1.6-2.8-1.6-6-2.8-2.8-4.8-2-8.4 2.4-8.4 2.4m91.8 22.9s7.6.8 10 .8 3.6 0 5.2-1.6 2.4-3.2 5.6-3.2 4-1.2 6.4-2.4 2.4-1.2 5.6-1.2 4.4.4 5.2 2 1.6 3.6 3.6 4.8 4.4 2.8 6 1.2 4.8-3.6 4.8-3.6 3.2-2.8 6.4-2 7.2.8 7.2.8 2 5.2 4.4 5.2 3.2-1.2 4.8.4 3.6 3.2 5.2 2.4 7.2 2 7.2 2 4 2.4 5.6.8 6.4.8 6.4.8 5.2 1.2 6.8 2.4 6.7 3.6 8.8 2c2-1.6 4.4-2.4 6.4-2s8.4 2.4 8.4 2.4m-411 116.7 8.1.1s.4-5.2.4-7.2 2.4-5.2 2.4-5.2 4-.8 6.4-.8 10-.4 10-.4l.8-10s-.8-1.6-1.6-3.2-.4-4.4 1.2-5.2 6-5.2 6-5.2h22.3v-10.4s3.2 3.2 6.4 4.4 6.4 4 6.4 4l3.6 2s2.8-3.6 4.8-2 4.8 5.2 4.8 5.2 4.4.4 6 0 4.4.4 6 2.4 3.6 3.2 5.2 3.2 2.4-1.6 4.4-2.4 2.8-1.5 4.8-.8c2 .8 2.8 2 5.2 1.6s2.8-2 1.2-4-2.4-3.6 0-4.4 6-1.2 6-1.2 3.6-.8 5.2-1.2 3.6 0 5.2 0 3.6-.4 3.2 2-.8 4.4 1.2 5.2 7.6 2.8 7.6 2.8l-1.6 5.6-1.2 6s.8 1.2 3.2 2.8 5.6 1.6 8-.4 6.4-4.8 10-5.2 7.2-.4 7.2-.4 3.2 0 5.2-2.8 2.8-5.6 7.6-6.8 9.2-2.8 9.2-2.8 4.4-3.2 6-4.4 2.8-2.4 4-4 2.4-6 2.4-6-3.2-2-4.8-2.4-4.8-4.4-4.8-4.4-4.4-6-2-8 4-4.4 4-6.8-.4-3.6 1.2-6 1.6-6.4 1.6-6.4l-1.2-3.6-23.9-1.2.4-11.2-3.6-3.6-.8-4s-3.6-1.6-5.2-1.2-5.2.4-5.2.4-3.6-2.8-.8-4 12-7.2 12-7.2 4.8-2.4 6.8-4.8 2.8-3.2 2.8-5.6 0-4.4 1.6-5.6 8-11.2 8-11.2 1.6-3.2.8-5.6-2-4.8-3.6-6.4-5.2-2.8-6.4-.4-1.2 5.6-4.4 5.6-7.6-.4-7.6-.4-2.8-.8-2.4-4.4 0-6.8 0-6.8l-3.2-4.4s-1.6-2.8-1.6-4.4-2.8 0-2.8 0-4 1.6-8 1.6-6.8-2-6.8-2-2.8-2.4-1.2-5.2 1.6-4.8-.4-6.8-6-8.4-6-8.4-2.8-1.6-.4-4 4.8-6.4 4.8-6.4l2-7.6 3.6-6.4s2.4-1.2 5.2-1.2 6.8 0 6.8 0 .4 2 3.2 3.2 4.8-.8 4.4-3.2 1.2-3.2 2.8-3.2 4.8.4 4.8.4-3.6-4-4-6-2.8-5.6.8-6.8 7.2-2.4 7.2-5.2-1.6-5.2 1.2-6.8 2.8-2.8 2.8-4.8 0-4-2-4.4-10-2-11.6-2-10.8-1.2-10.8-1.2-4.8.4-4.8-2 .4-3.2 2.8-3.2 4.4-.8 4.4-.8 2.8-2 2.4-4.8-2.4-2.8-1.6-5.2 1.2-3.6-.4-4.8-7.2-4.8-9.2-6-8.4-4.8-8.4-4.8 1.2-2.4.8-5.2-1.6-2.4-3.2-4-3.2-1.6-5.2-1.6-3.2-.4-5.2-1.6-6.8-4.4-6.8-4.4-2-6-.8-8.4 0-6.8 1.6-8.8 3.5-3.2 2.4-6.4c-1.2-3.2.4-7.2.4-7.2m132.4 523 .9-2.1s2.2-11.1 1.5-14.1-1-6.3-2.3-8-2-2.7-2-5-.7-4-2.3-5.3c-1.7-1.3-4-3.7-3.7-6.7s1.4-6.3 3.7-6 7.6-.7 7.6-.7 1.3-1.3 2.7-3.3c1.3-2 3.7-6.7 5.3-6.7 1.7 0 5.6-.3 5.6-.3s1 2.7 3 3 4.6-2.7 4.6-2.7.7-2.6.3-4.3c-.3-1.7-.7-8.4-.7-10 0-1.7-.3-8.3-.3-8.3s-1.7-2.7-3-3.7-2.7-2.7-3.7-4-2.3-1.7-2.3-1.7-5.3-.3-8.3-.3-4.3-.3-5-2-4.7-7.7-4.7-7.7-.6-1.7-3-2.3c-2.3-.7-5.3-2.7-5.3-2.7s-2.3 0-4.3 0-3 0-4.3-1.7-1.7-2.6-2-4-1.4-4.3-1.4-4.3-4.3-1-6.3-.7-4.3-.7-6.3-.7-4.7-1-5 1.7-1 4-2 5.7-2 3-4 3-5.7.7-7.3-.3c-1.7-1-6-4-6-4l-4-2.5-5.2-4.4-1.2 6s.4 4.8 2 6.8 1.6 3.2 1.6 6-.8 8.4-1.2 11.2 2.4 5.2 2.4 5.2-4.4 2.4-6 3.2-2-.4-4-.8-8.8-1.6-12-2.8-2.4 0-8.4 1.6-10 2-10 2-3.2-1.6-5.2-2.8-4 1.2-6 1.6-5.2 0-5.2 0-1.2 2.8-4 2.8-4.8 0-6.8-2.8-3.6-1.2-3.6-1.2-6-7.6-6.4-9.6-4-5.6-6-6-3.6-2-6-3.6-4-3.6-4-3.6-2.4-4-3.6-6-4.4-8.8-4.4-8.8l-18.8.8s-3.6-2-5.2-2.4-4.8-1.6-4.8-1.6.4 4.8.4 6.4 1.2 2.8 1.2 2.8l-2.8 3.2s-2.8 1.6-4.4 2.4-5.2 0-5.2 0-1.6-2.4-2.4-4.4-1.6-5.2-3.6-6.8-6.8-6-6.8-6l-4.8 9.6s-3.2 1.6-4.8 3.2-9.3 3.4-9.3 3.4m498.4 218s-1.4-18.1-1.1-20.5 3-4.3 4-5.7c1-1.3.7-2 3.3-2 2.7 0 4.6.3 4.3-3s-1.7-8 0-10 2.3-2.4 2.3-6c0-3.7 1.7-6 2-9.7s0-6.3-1.3-10c-1.4-3.7-2.3-8-2.3-11.3s.6-5 1.7-7c1-2 1-4 2.3-5.3s1.7-3.3 1.3-6c-.3-2.7 1.4-3-1.7-3-3 0-6 2-7.6 0-1.7-2-3.7-3-6-3s-3.6 1.3-3.6-1.7 0-10.3 0-11.6 2.6-2-1.7-2.7-7.3-4-8.3-4.6c-1-.7-3.9-4.7-5.3-6.7s-2.3-3-2.3-4.3-.7-5.3 1.3-7.3 2.3-3.3 2.7-4.3c.3-1 .4-1.7-1.3-2.3-1.7-.7-3.7-1.7-4.3-2.7-.7-1-1-1.3.7-3.3s5-5 5-8.7.7-8 .3-9.3c-.3-1.3-3-5.7-3-5.7s-5.3-1.3-6.6-1.7c-1.4-.3-8.6-1.7-8.6-1.7s-3.3-.4-6.7-.7c-3.3-.3-5.7 2-8 4.3s-4 1.3-7.3 2.3-4.3 2.7-10.7 2.4c-6.3-.3-9 4-13.3 4.6-4.3.7-8 5.3-9 6.7-1 1.3-5 3.7-6.3 4.3-1.3.7-3.7 1.7-6 2s-6 2-7.6 3c-1.7 1-6 3.3-6 3.3s0-.3-1-2.4c-1-2-1.3-1.3-3.3-.7-2 .7-6 2.7-6 2.7s-8.3 0-9.3 0-2.7 0-4.3 1c-1.7 1-2.7 1.3-4.3 1-1.7-.3-5.3-.3-7.3-.7-2-.3-4.7-.7-4.7-.7s0-9 0-11-1.7-3.3-3.6-3.7c-2-.3-2.7 1.7-3.3 3-.7 1.3-2 2.7-6 5.3-4 2.7-2.7 3.3-5 4.6s-3.6 3-5 5.3c-1.3 2.3-1.7 1.7-3.7 1.7s-5 1.3-6.7 2.4c-1.7 1-4.3 2.7-5.7 4s-4 2-4.3-.7-.3-4-1.7-2.3c-1.3 1.7-2.7 1.7-2.7.3 0-1.3-1.7-5.7-1.7-5.7l-4.3-3.7s-5.7-2.4-7.6-2.4-4.3 0-4.3 0-1.3-3.7-1.3-5.3-2.7-3-4-5c-1.4-2-1-4 1-5.3 2-1.4 1-4.3 1-4.3l-3-2.3s-2 1-3 2.3-1.7 2.3-1.7 2.3l-3.3 1m-.1-38.5s5.7-.7 7.3-.7c1.7 0 4 0 5.3-.7s4.3-.3 5.7-.3h6.6s1.7-1.7 2.7-2.3c1-.7 3.6-1 4.6.7s3.3 1.7 4.7 0c1.3-1.7 1-3.7 5-2s4.3 1 6 1 3-.7 3-.7 1-2.4 1.3-3.3c.3-1 .7-3.3.7-3.3s1.7 1.7 4 3 3.6 3 4 4.3c.3 1.3 1.7 6 2.3 7 .7 1 2.3 5 3 6.6.7 1.7 1 3.3-.7 4.3s-3 2.3-3 2.3l-.7 1.7s1.7 1 3.7.3 1.3 1 1.3 2 1 4-1.7 4-2.7 1-2.7 2.4c0 1.3-1 2 1.7 2.7s2 2 0 2.3-3.3 2.7-3.3 5.3 1 3.7-.7 4.7-1.7 2.7.3 2.3c2-.3 4.7-.3 6.3-1 1.7-.7 4.6-.3 4.6-.3l3.3 2m172.8 117s.7 1 1.7 2.7 3.6 2 5.3-.3 3-3.3 5-3.7c2-.3 6-1 6.3-4.3s0-4 2.3-4.3 4.7-2 4.7-2 3.3-4.3 4-5.3 1.3-1.3 1.3-3 0-6.3 0-8 .7-4 2.7-2.3 7 0 8.3-1 3.9-3 6.3-3c2.3 0 4.3-.3 5.7-.7 1.3-.3 3 0 6 .7s8.3 1 10 .7 5.3-2 8-1.7 6.3.7 7.6 0 2-2.6 3-4 .4-1 3.7 2 4.3 2.3 7 1.3 5.7-5.6 7.6-3c2 2.7 3.3 5.3 6.3 3.3s7-4.7 8.6-4.7c1.7 0 6.3-1 8.6-1.3s3-2.3 4-3.7c1-1.3 3-2.7 5-3.7s4-2 4.6-1c.7 1 5 2.7 5 2.7s1.6-5.6 3-8 2-6 2-6 4 .4 5.3-1 4.3-2.7 5.3.7c1 3.3 1.3 4.6 2.7 4.6 1.3 0 6.7 3.3 6.7 3.3m34.4 182.8s-2.8-3.6-3.2-5.3c-.3-1.7.6-5.3 2.7-7 2-1.7 4.7-5.3 4-8.7-.7-3.3-1-7.3 0-9.3s3.6-11.7 4.6-14.3c1-2.7 2-4.3 1.4-7.7-.7-3.3-6.7-17.3-7.3-18.6-.7-1.3-1.7-4-.7-6s2.3-4.7 2.3-4.7 5.3-3 7-5.6c1.7-2.7 1.7-3 2.7-5s1.4-7 5.7-9 4.3-3 5-5.7 4-8 5-9 5.3-3.7 5.3-3.7l9.3-4.3" fill="none" stroke="#646464" stroke-width="1.4961"/><path d="m500.4 810c-4.2-3.3-8.5-6.7-12.7-10-.7-.6-1.5-1.6-2.1-2.3l-17.6-19.1c-.5-.6-16-5.4-18.7-7.5-1.1-.9-3.5-3.2-4.5-4.3-1.8-1.9-5.3-10.3-6.3-12.8s-.6-5-2.5-7.1c-.2-.1-2.7-.6-2.8-.6-.9.1-2.2.2-3.1.5-3.2 1.1-4.6 2.7-7.1 4.9-.1.1-.2.3-.3.4-.7 1-1.4 2.3-2.2 3.1l-6.8 6.9c-2.5 2.6-5 5-7.7 7.5-.8.8-1.2 1.3-2.1 2-3 2.3-6.7 4.1-9.7 6.4-1.2.9-5.3 5-6.4 6.2-.1.1-2.8 3.8-2.8 3.9-.2.4-.1.6-.2 1-.2.9-.6 2.1-.6 3.1 0 .3.1.8.2 1.1l1.5 8.9c.3 1.7.6 2.7.7 4.5 0 .1-.7 7.4-.7 7.4-.5 1.5-1 2.2-1.7 3.7l-3.3 7.3c-1.1 1.9-1.9 2.9-3.1 4.7l-10.8 16.3-.3 7c.1.6 2.4 9.2 2.7 10 1.4 4 5.5 9.6 2.7 14l-6.1 9.4-.2 2.6c.6 2.9 1.8 5.8 2.5 8.7.2 1 .2 2.4.3 3.5l.2 2.3-1.6 4.1c-.1.3-1.3 3.7-1.7 4.2-.8 1.2-1.9 2.4-2.8 3.6l-.1.2c-.7.1-9.6 1.5-9.7 1.5-2.7 1.3-5.7 2.6-8.3 4.1-2.1 1.2-4.9 3.7-6.9 4.7-2.4 1.1-5.7 1.5-8.2 2.6-2 .9-3.7 2.7-5.7 3.6l-4.2 1.2-2.9-1.4c-1.3-1.1-2.2-2.9-3.4-4.1-.1-.1-3.6-2.9-3.6-2.9-1.3-.8-3.1-1.2-4.5-1.9-.5-.3-1.1-.8-1.6-1.1-2-1.4-5.7-4.3-7.7-5.4 0 0-3.6-1-3.6-1l-7.4 1.1c-1.4.2-2.3.2-3.7.5-.2 0-6.2 1.9-6.4 2-.1.1-1.4 1.5-1.7 1.7-1.3 1-2.9 1.8-4.3 2.6l-1.1 6.4-1 .9c-1-.1-2.4 0-3.4-.3 0 0-1.3-.8-1.4-.9l2.7-6.8-.8-2.6c-.3 0-3.8.4-3.9.4-2.3-.4-5.9-1.8-8.3-2.4l-2.8-.4c-1.2-.2-2.6-.5-3.7-.5-2.3-.1-5.1 0-7.3.6 0 .2-.5 2-.5 2.1 0 1.5.4 3.3.6 4.8l-.8 1.6-6.5 3.4c-.1.1-.7 1.4-.7 1.4 0 1.4-.2 3.1 0 4.4.2 1.4.9 3 1.2 4.4 0 0 .2.2.2.3 1 1.2 2.4 3.3 3.5 4.2 1.9 1.7 4.5 2.9 6.5 4.6l2.1 2.4c.4.5.7.7 1.1 1.2l.6 2.4c.1.5.3.7.3 1.2-.1 2-1.1 7.2-1.4 9.4 0 0 .3 1.6.3 1.7.2.2 2.8 2.3 2.9 2.4.2.1 4.1 1.1 4.5 1.2l1 1.5-1 5.2c-.2.2-2.3 2.6-2.3 2.6-.3.6-.3 1-.5 1.7-.4 1.5-1.4 3.7-1 5.3l.7 1.7c.1.3.1.6.4.9.6.7 1 .9 1.6 1.5l3.3 3.1c.4 1.8-1.7 4.7-2.2 6.4 0 .1-.6 4.7-.6 4.7l2.1 5.7 3.1 3.9c.6.8.7 1.4 1.6 1.9 2.1 1.3 3.6 1.6 5.9 2.6l11.7 5.2 1.1 1.5c1.1 1.6 3.5 5.3 4.7 6.6.2.2 2.7 1.6 3.1 2l4 3.6c.8.7 1.4.9 2 1.8.4.6 4.7 11.9 4.9 13.4.2 1.2 0 3 0 4.2l-1.7.4-4.6-4.4c-.9-.9-1.3-1.5-2.3-2.2-.5-.3-.9-.3-1.4-.5l-2.9-1-3.2.3c-.1 0-5.1 2.4-5.1 2.4-.9.7-1.3 1.2-2.1 2l-4.3 4-.8 2.8.8 1.7 3.4 1.4c3.7 1.5 7.6 2.7 10.8 5.3l2.1 2.2 6.5 18.2c0 .1.1 3.5.1 3.8l-2.9 3.3-8.3.7-2.1 3.7v.8c0 1.2-.2 2.8 0 3.9l.7 1.9c.1.4.1.6.4.9.5.6.9.7 1.5 1.2l2.9 2.3.3 1.1-2.7 5.1.4 3.3.8.9 4.3.9 1 1c0 .2.2 1.9.2 1.9-.3 1.4-1.2 3-1.7 4.4-.5 1.3-.6 2.8-.6 4.3.4.9.9 2.3 1.5 3.1.7 1 3.2 3 4.3 4 .4 1.8 1.2 4.2 1.5 6 .1.9-.4 2.1-.4 3 .1.8 2.2 4.3 2.7 4.7 1.4 1.3 4.1 2.9 5.7 4.1l3.6 10 2.1 1.1c3.3-.4 6.7-.7 10-1.2 1.2.7 3.3 1.9 4.3 2.8.1 0 3.6 4.3 3.7 4.4 0 0 1.1 2.7 1.1 2.7l.8 15.4m242-1151.4c2.2-1.7 4.8-2 7.3-3 2-.8 5.9-2.2 7.7-3.2l2.7-2c1.7-1.3 3.5-2.5 5.3-3.8.5-.4 1.6-.6 2.2-.8 1.8-.7 3.8-1 5.6-1.6.2-.1 2.1-1.2 2.1-1.3l2.1-1.3c1.8-1.6 4.2-5 5.5-6.9 1.9-2.7 3.8-5.4 5.5-8.1.2-.3 3.3-5.4 3.6-5.7 1.4-1.4 3.2-2.5 4.6-3.9.8-.8 1.5-1.7 2.2-2.6m-57.9 155.8c-2-4.5-1.5-17.4-.8-22.3 1.1-2 3.6-3 5.8-2.3l2.1 1c.4.2.7.2 1 .5l1.6 2.2c.3.4.6.6.8 1.1l.2 2.4c.2 2.3-.3 4.3-1.6 6.1-.1.2-1.2 1.7-1.3 1.8-.4 1-.5 2.3-.7 3.4-.1.6-1.4 5.4-1.7 5.8 0 .1-1.5 1.5-1.7 1.7-1.2-.1-2.8-.8-3.7-1.4zm65.8 19.9c-1.2 1.7-2.7 3-4 4.6l-1.2 2.1c-.4 1.2-.7 4.2-.4 5.4.2.8.8 1.9 1.2 2.7.1.2.9 2.1.9 2.1.6.8 1.8 1.7 2.6 2.5l.5.5c3 .3 6 .6 9 .9 1.7.2 2.5 1.7 3.9 2.5l1.7.6c.4.1 3.8-.2 4.2-.3.1 0 2-1.4 2.2-1.5l-.3-4.9c-1.1-1.5-2.2-3.3-3.5-4.6-1.3-1.4-3.5-2.5-4.7-3.9-.8-1-1.4-2.5-2-3.6-.7-1.1-1.4-2.1-2-3.2-4.9-2.4-2.7-2.4-8.1-1.9zm114.3 192.1-4.5.5-2.5-5v-7.5l-4.3-3 1.6-12.3 2.9-4 4.1-2.2 4-.6 5 2 4.9 3.9 2.5 5.8-1.2 9.3-8.5 7.3zm-720.4-244.6c-.8-1.4-2.4-3.8-3-5.3s-.7-3.6-1.1-5.2c-.6-2.2-1.7-4.8-3.1-6.8-.5-.8-4.3-5.3-4.9-5.6-.5-.3-.9-.4-1.5-.6-1.9-.7-3.8-1.4-5.7-2.1-1.3-.4-2.9-.8-4.1-1.4-.2-.1-.5-.2-.7-.4m966 1086.6s3.4-15.1 4.1-18.9c.3-1.3.4-2.6.6-4 .1-1 .5-2.1.5-3.1 0-.7-3.8-10.1-4-10.6-.3-.8-.4-1.8-.7-2.6-.5-1.3-1.3-2.6-1.8-3.9-1.1-2.9-1.9-6-3.1-8.9s-2.6-5.6-3.4-8.6c-.6-2.5-1-5.1-1.7-7.6-.2-.8-.6-1.7-.9-2.5-.5-1.6-1.5-4.4-1.7-6v-1.8c0-3.2.7-6.4-.1-9.6l-.3-1.2c-.4-.7-1.3-1.6-1.9-2.2-2.1-2.1-3.7-3.4-4.7-6.4-.4-1.3-.4-2.7-.8-4-.3-.9-.7-1.8-1-2.8-.4-1.4-1-4.6-1.9-5.7-1-1.3-3.4-3.2-4.9-4-2.6-1.5-6.3-2.5-8.2-5-.4-.6-.8-1.6-1.1-2.2-.6-1.4-2-5.4-2.2-6.8-.1-1.1.1-2 .2-3.1 0-.5-.1-1.2 0-1.7.3-2.3 1.8-4.3.8-6.7-1-2.2-4.2-4.6-5.6-6.7-.3-.4-.7-.9-.9-1.4-.1-.3-.5-2.4-.5-2.7 0-.2.8-4.5.8-4.6.3-.8.8-1.6 1.2-2.3 0-.2-.1-1.8-.1-1.9-.4-1.3-3.9-4.3-4.9-5.1 0-1.5.2-6.8 0-8.1-.3-1.7-1-3.4-1.2-5.1-.3-2.2-.2-6.4-.2-8.5-.1-2.2-.9-9.2 1.4-11.2v-18.2l-9.8-5.7c-4.8-2.7-9.7-6.6-14.2-9.7-1.3-.9-2-1.6-3.4-2.4-2-1.2-4.4-1.8-6.4-3-1.9-1.2-4.5-3.3-6.4-4.8-.1-.1-.8-.4-.9-.4-.5-.2-6.3-3-6.5-3-2.1-.5-3.3-.4-5.5-.7l-11-1.4-2.2-.8c-.1 0-2.8-3-2.9-3.1l-2.1-2.3s-1.3-3.6-1.3-3.6c-.1-.9.1-1.4.2-2.2l.3-4.5c.4-1.2.9-1.8 1.5-3l3-5.9c1.7-2.9 4-5.6 5.6-8.6.7-1.4 1-2.2 1.6-3.6 1.4-3.2 3.8-7.9 4.2-11.5-.4-1.3-.8-3-1.4-4.2-.3-.7-3.2-3.1-3.7-4l-1.1-3.5 1.1-14.8-.4-1.7c-.2-.8-.3-2.1-.6-2.8-1.5-3.5-4-6.3-6.4-9.2-.8-1-1.4-1.6-2.2-2.7-1.1-1.7-1.7-3.9-2.8-5.7s-4.2-4.5-6-5.6c-.6 0-1.3 0-1.9-.1-.7-.1-8.3-1.2-8.5-1.3-1.8-.7-2.6-1.4-4.2-2.3l-8.5-4.6-3.1-.3-4.8 3.9-4 5.4c-.8 1-1.1 1.7-2 2.7-.7.7-1.2.8-2 1.4l-4 2.8c-1.1.6-4.5 1.8-5.8 2.3-.1 0-1.6.2-1.7.2-.5.1-7.5.8-7.6.9-1.5.6-2.2 1.3-3.6 2.1l-7.3 4.2c-3.7 1.8-8 2.8-11.7 4.5-1 .5-3.2 2.6-4.1 3.6l-8.9 10.5c-.2.2-2.8 2-3.3 2.2-.7.3-4.8 1.7-5 1.7-1.5.1-8.5-.4-10.3-1-.2-.2-1.3-1.3-1.3-1.4-.8-1.9-3-7.7-3.9-9.2l-3.2-3c-.4 0-7.7.3-7.8.2l-6.8-3.7c-1.3-.7-2-1.3-3.4-1.9-.9-.4-1.5-.4-2.5-.6-2.8-.7-10-2.1-12.5-3.5-1-.6-2.1-1.8-3-2.5-.2-.9-.5-2.4-.9-3.2-.5-1.1-8.6-15.3-9-15.7l-6.2-4.6-4.2-1c-.8-.2-1.3-.4-2.1-.5l-3.7.1-2.1 1.1c-.4.2-.7.3-1 .6-.1.1-1.8 2.2-2 2.5-.9 1.1-2.3 2.5-3 3.7-1 1.6-1.4 5-3.1 6-.3 0-4.2.5-4.2.5-.2 0-5-1.8-5.5-2-.7-.9-2-2.5-2.5-3.5-.1-.3-1.9-6-1.9-6.1-.1-1.6 1.4-4.9 1.3-6.6 0-.3-1.4-6.4-1.6-7.1.7-1.6 2.6-5.6 3-7.1 0-.1-.1-3.4-.1-3.7-.1-1.7 0-6.2-.2-7.7 0-.1-2.3-7.3-2.4-7.4 0-.1-3.6-6.1-3.6-6.1-.2-.3-5.6-4.2-6.6-5l-3.5-9.7c-.6-1.3-5.9-9.6-6.8-10.8 0-.1-2.7-2.2-3-2.3-2.2-1.7-4.4-3.8-6.8-5.3-1-.7-3.4-1.5-4.6-2l-2-.8h-3.6c-.7 0-1.1-.1-1.8 0l-2.7 1.5-9.4 8.9c-1.8 1.7-2.8 2.8-4.7 4.5l-4.4 2.8-5.8 5.8-10 5.5s-10 3-12 3-7-5.5-8.5-9-5-.5-5-.5-2.5 3-7 2.5-8.1 2.8-8.1 2.8c-1.4.2-2.8.3-4.2.5l-8.1 1.1c-.1 0-3.4.4-4 .5l-10.3 3.2-1.3 2.6m83.7-733.3c-.3 0-2.9-.2-3-.2l-2.7 1.3c-2.6 2-4.9 4.6-7.5 6.7-1.2 1-2.5 1.7-3.5 2.9-.1.1-1.2 1.7-1.2 1.8-.4 1.2-.2 2.7-.6 3.9l-2 3.4c-5.6 1.1-9.7-.5-15.1-1.9-2-.5-4 1.2-6 .9-2.7-1.5-4.6-3.9-7-5.6-.7-.5-4.6-.2-5.9-.7-2.1-.7-4.2-1.9-6.3-2.8-1.4-2.8-3-5.6-4.5-8.3-.2-.4-1.4-.8-1.8-1.1l-4.1 7s-.3 1.4-.3 1.5l1.9 2.7v2.3c-1.2.6-3.5 2.4-3.9 3.8.1.4 1.2 3.3 1.3 3.4 1.9 2.8 3.8 5.8 5.9 8.5.7.8 1.9 1.7 2.7 2.5.1 0 .4.4.5.4.6.2 5.6 1.6 5.8 1.7 1.1.6 2 1.9 3.1 2.4l2.8.5 8.1 2.3 2 5-5 .5c-2.2.2-7.5-2.6-9.7-2.7-1.1 0-2.4-.3-3.5-.4 0 0-.4-.2-.4-.2l-5.4-2.6c-1.8-.9-4-1.9-6-2.1l-1.7.2c-.3 0-.5 0-.9.1l-2.7 1.4-3.1-1.2c-1.7.6-5.3 2-6.9 2.3-.6.1-1 0-1.6 0-2 0-4.1-.1-6.1.5-.2.2-3.2 2.7-3.3 2.8l-3.9 1.1-1.9-1-.3-3.9c-.4-.7-1.9-1.7-2.6-1.7l-2.2.1c-.4 0-.7 0-1.1 0-1.2.2-2.4 1-3.6 1.2-.8.2-3.3-.4-4.1-.7-1.3-1.2-2.6-3.4-3-5.1-.1-.1-1.8-.9-1.8-.9l-10.6.1c-2.1-.6-4.1-1.4-6.3-1.5l-.7 4.7s-1.5 8-1.5 11.5-7 2-7 0 0-5.5 0-5.5l-6.5 2.5s-1 2-3.5 4.5-4 2.5-6 1-2-3.5-2-3.5l2-5-1.5-5s-4.5 4-6 6.5-4.5 7-7 9-9.5 5-15 2-13.9-5.3-13.9-5.3l-4.1-2.6c-2.2-1.7-4.4-4.5-6.6-6.1-1.5-1.1-2.5-1.5-4.1-2.5l-8.1-4.9-2-.7c-1.1-.1-2.9.6-3.8 1.3-1.3 1.4-1.5 4.5-1.6 6.3 0 .3.1 1.4.1 1.6-.1.6-.6 1.5-.9 2.1l-1.4.8c-.7-.2-1.7-.3-2.3-.6-2.3-1-4.6-2.2-6.9-3-.6-.2-6.3-.7-6.8-.6-2.3.1-4.9.9-7.2.9l-2.6-.6c-.7-.2-2-.5-2.5-1.3-.5-2-1-6.4-1.4-7.5-.1-.4-.4-.5-.6-.8l-1.2-1.6c-.6-.6-2.5-1.9-3.4-2.1-1.2 1.5-2.6 2.9-4 4.3-1.9.6-4.2.3-6-.2-.3-.1-.5 0-.8-.2-1.3-.9-3.1-2.8-4.3-3.9-.7 0-1.4 0-2 .1-4.7 3.7.6 7.4 1 11.5l-3.9 9.1-1.2 1.1c-2.6 2.5-7.2 3.8-10.8 3.7-4.9-.2-9.8-.3-14.7-.5-5.2-.3-6.9-1.1-12 0-.4.1-.7.1-1.1.2-2.4 1-4.4 2.6-6.9 3.4l-2.4.7c-1.1.2-2.3.1-3.4.4-.1 0-4.3 1.5-4.4 1.5 0 0-3.4 2.4-3.5 2.5l-5.8 6.7c-1.3.5-4.7 0-5.9-.4-1.5-.6-3.5-1.9-5-2.7l-1.8-.9c-.9-.2-8.2.1-8.3.1-3.8.1-7.6.2-11.3.5-2.9.2-7.9-.5-11.1-.8-1.3-.1-3.9-.2-5.2.2-.5.2-7.2 3.1-7.6 3.3-1.5.9-2.2 1.5-3.7 2.5l-7.3 5c-1.7 1.1-3.6 1.4-5.3 2.3l-1.6 1.3c-.3.3-.5.4-.8.7-.6.7-1.1 1.8-1.6 2.5-.4.5-4.8 6.1-5.2 6.4 0 0-1.9.9-2 .9l-5.3-1c-1.2-.4-2.8-1.5-3.9-2.1-.2-.1-.5-.3-.7-.4-.3-.1-3.6-1.3-3.6-1.3-1.8-1.1-3.3-3-5-4.3s-3.9-2.4-5.8-3.2l-3 .3c-1.8.8-3.4 2.5-5.2 3.4-.1.1-5.5 2.2-5.6 2.2-.2 0-7.1-.1-8.2-.1-1.4-1-3.1-1.9-4.5-3s-2.6-2.6-4-3.7l-3.5-2.3c-.7-.4-1-.8-1.7-1.1-1-.5-3.5-.9-4.6-1-2.2-.1-4.9-.2-7.1.3-1.8.5-5.2 2.4-6.9 3.3-2.2 1.1-4.4 2.1-6.5 3.1-1.5.8-3 1.8-4.6 2.5-.1 0-1.6.3-1.8.3-1.5.2-3.4-.4-4.9-.4m1139.3 984.2c-2 1.5-4.3 2.8-5 4.8-.9 2.6-2.4 4.1-3.8 6.3-5.2 8.6-4.7 8.4-12.6 14.9-3.7 3-4.6 8.7-8.2 11.8l-7.1 6c-5 4.2-9.6 8.7-14.2 13.3-5.7 4.3-4.4 4.8-10.4 3-2.5-.8-2.4-6.5-2.5-7.4l-.3-.2-.4-.1c-3.9 1.8-9.5 2.7-13.6 1.3l-1.6-.5c-1.2-.4-1.3-.5-2.3-1.3l-3-2.6c-.7 0-2.1.2-2.9.4-1 .5-2 1.1-3 1.5-1.3 1.1-2.7 4-4.6 4h-1.8c-.2 0-1.4-.4-1.6-.6l-10.6-8.6c-.3-.1-.8-.2-1.2-.3l-1.3-.3c-2.7-.8-5.2-2.5-7.7-3.8l-3.1.3c-2.3 1.1-8.9 6.8-11.1 6.2l-3-1c-3.4 1.6-3.2 1.9-6.5.8l-.4.2c-3.7 1.9-4.6 2.8-7.1 5.8l-.3.3c-4.3 5.3-4.5 5.6-10.1 9.5-.8.5-3.8 1-4.7 1.2l-3.9 4c-1 1-1.3 1.3-2.7 1.7l-2.8.8s-.2.1-.4.3l-4 4.1c-.1.1-1.2.7-1.3.7l-1 .2c-2.1.4-4.9-.3-7.6-.6-3.6-.5-6.9-.8-8.4-1l-3.5-1.7-1.6-.8c-2.9-1.6-4.1-5.6-7.2-8.1-3.6-1.3-8.4-2.5-11.2-5.5l-2.8-3.9-.1.5c-.2 1-.3 1.4-.9 2.2l-1.5 1.8c-.2.3-1.6.9-1.9.9h-.7c-3.6 1-6.5.5-9.9-.2l-7.1-.9-19-8c-3.6 1.4-6.8 9-11.3 8.3-5.9-.9-10.3-5.3-16.1-6.7-1.8-.4-2.1-1-3.5-2.3-1.7-1.6-1.8-2.9-2.8-5.4-.3-.2-.5-.3-.7-.6-4.4-.6-4.4.3-9 1.8-2.5.8-10.4-6.6-12.4-8.2-2.4-1-4.7-1.8-7-2.9-.7-.3-1.5-.4-2.2-.4-3.1 0-6-.2-9.2-.4l-.6-.1-3.9-1.1c-3.6-1-3.3-1.3-4.6-4.6-.6-.4-.5-.4-1.4-1.2-1.2-.3-2.5-.7-3.7-1.1-3.7-.8-7.2-.7-10.6-2.5-.7-.3-1.3-.7-2-.9-1.3-.1-2.8-.3-4-.3-2.7.8-10.6 4.7-11.6 4.6-3.4-.3-3.7.1-5.7-2.4-.5-.7-.6-2.3-.1-3l.1-1.2c-3.2-.9-4.4-1.1-5.3-1.7-1-.6-1.6-1.6-4.1-4.3l-1.3-.2c-12.1 7-9.8 4.1-21.9-2.2-8.5-4.5-16.3-2.8-24.4-10.2l-1.9-2.1c-.9-1-1.2-1.2-1.6-2.6l-.8-3.3c-.5-1.8 4.3-9.4 5.1-11.9 0-.3-.1-.5-.1-.9 0-1.9 0-3.8.4-5.6-5.1.9-6.1-.8-10.7-3.7-2-1.3-4.8-3-5.8-5.3l-.1-.5-.9-4.9v-.5c0-1.7.6-3.6 1-5.2l1.2-2.7c-.4-1.1-.8-2.1-.9-2.2-1-1.6-1.7-2.4-2.9-3.9l-8.2-11.1c.1-3.3-.8-8.5-2-11.7l-3.7-2.3-7.3 1.3-3.3-4.9c.2-.2 2.7-2.5 2.8-2.6 1.1-1.5 2.3-4.2 3.2-5.9l-1.3-2.9-3.1-.6c-1.4.6-3 1.2-4.4 1.9-1.1.6-4.2 3.4-5.3 4.3l-.4-.1c-4.7-1.5-9.6-2.9-14.2-4.6-2-.7-7.4-3.2-9-3.6-.1 0-6.4.1-7 .1l-2.1-2.5c-.2-.4-.6-2.5-.8-2.8-.7-1.1-2.8-3-3.7-4l-2.4 1.2-.5 4.4-5.8.8c-.1-.6-1.5-13.6-1.5-13.7-5.2-10.7-10.4-21.4-15.6-32.1l-4.9-4.3-1.8-3.6c-2.6-.6-4.5-.9-5.7-2.5-.6-.8-1.2-2-1.3-3.7-.1-1.2 1.6-3.9 1.1-4.7l-1.2-1.9c-2.5-2.4-4.5-3.6-5.9-4.7-1.4-1.2-2.3-2.3-2.6-5.7l-3-1.5-.5-.3c-2.2-1.8-3.3-4.2-5.6-6l-3.5-2.7c-3-2.2-7.5-4.5-10.4-6.2l-5.4-3.2-.6-.5-2.2-2.5-.3-.5s-.2-.4-.3-1.1l-.7-2.9c-.3-1.2.9-3.9 1.6-4.8-1.3-.2-2.8 0-4-.7-1.7-.9-2.9-2.1-3.9-3.4-1.4-1.9-2.1-4 .1-6.4-1.5-3.6-1.4-3.3.5-6.8-2.2-2.9-2.2-3.3 0-6.3-1.8-5-3.7-4.6-7.1-7.6l-2-2.2c-.4-.4-.8-.8-1.2-1.3l-.3-.6-.2-1.7c-.7-2-.1-2.7.8-4.6-1.3-.9-1.9-1.3-2.6-2.7l-.3-.7c-.1-.3-.2-1.7-.1-2l1.6-4.1c.5-1.2.2-4.3.1-5.6l-1.4-.6c-1.7-.7-5.9-3.3-6-5.5l-.1-1c-.1-1.7.1-2.2.8-3.8-2.8 1.4-7.3-.3-6.6-4l.3-1.4.1-1.2c-6.5 2.7-8.2 3.2-10.7 1.4-2-1.4-4.6-3.9-10.8-8.9-1.6-1.3-.6-7.6-.4-9.7v-1c-.5-2.4-1.8-4.6-2.2-7.1-.4-2.2-.6-4.7-.8-6.9l-1.1-1.4c-.6-.7-.8-1.1-1.5-1.4-3.1-1.1-3.4-2.9-5.3-5.6-3-1.8-6.6-2.9-5.4-6.9l-1.1-.3c-.9-.1-1.5-.2-1.9-.5-.7-.4-1.2-1-2.5-2.4l-.4-.5c-1.4-2.5-2.2-5.4-3.7-7.9l-2.1-1.9c-.2-.1-.3-.3-.3-.3-.4-.1-.9-.2-1.3-.4l-2.1-.8c-2.9-1.1-2.7-6.4-3.2-8.9l-1.4-2.6c-5.9 2.8-6.2.1-8-4.6-.5-1.4 1.8-5.6 2-6.1-6 5-9.5 1.8-15.3-2.3l-3.1-2.1c-1-.5-2.1-1.3-3.1-2-1.8-1.1-8.3-4.2-6.6-7.2l1.4-1.6c-2.4.8-5.5 1.5-8.3-.3l-.6-.8c-2.1-3.1-1.2-7.9-1.5-11.4-.4-.8-.8-1.6-1.3-2.4l-.5-.8c-2.7-2.4-5.4-3.3-7.7-6.3-3.9-5-1.4-6.3-3.3-11.9l-.9-2.5-3.7-4.3c-.6-.7-1.1-1.5-1.7-2-.3-.1-.7-.2-1.1-.3l-1.3-.5c-.5-.2-1-.4-1.1-.5l-.4-.3c-3.5-3.1-4.6-6-7.2-9.9-2.4-3.5-5-6.8-7.5-10.2-7.8-1-6.7-2-11.4-6-3.8-3.2-8-6-11.9-9l-14.4-.1c-.3 0-1.6-.4-1.8-.6l-12.4-12.8c-1.9-.6-7-2.1-8.8-1.9-.8.3-1.5.7-2.3 1-3.1 1.2-3.9-1.7-4.9-3.6-2.9.1-3-.2-4.9-2.4l-1 .3c-4.7 1.4-7.8-.4-12.7 1.3-1.6.6-3.3 1.2-4.2 1.6l-.3.1c-1.4.3-2.7.9-4.2 1-1.7.2-3.5-.2-5.2 0-.4.2-.9.6-1.3.9-.1.1-.5.7-.9 1.2l-.6.8c-1.2 1.7-3.6 2.6-5.3 3.7-3.7-.6-5-2.6-5-2.6-2.6 1-4.6-1-7.1.2-3.9 1.9-6 2.3-8-1.8l-2.4-.3c-7 .4-4.4 1.9-10.5-1.1-6.7-3.2-5.7-5-13.4-5-1.2 0-2.5-.2-3.7-.2-2 0-5.6 3.2-7.8 4.3-3.7 3.3-3.4 3.6-6 5-.5.3-1.5 1.1-2.2 1.5-2.8 1.6-5.1 3.2-7.8.5-7.2-1-14.2.1-21.5.5h-.5s-.6-.1-1.3-.4l-4.2-1.6c-5.9-2.2-8.4-6.3-13.8-8.2-4.8-1.7-8.5-3.6-12.1-7-7.9-2.4-10.3-5.4-17-10.7-6.6.9-11.8 2.3-18.3-.4-2.6-1.1-4.8-3.2-6.4-5.5 0 0-.3-.3-.4-.4l-1.6-1.3c-4.3-2.6-9.8-2.4-13.6-6.3-2.7-2.7-7-9.7-4.4-13.5l.6-1.9.6-1.5c.2-.7.4-1.2.5-1.2l.3-.4 3.3-3.5.5-.4c1.6-1 3.6-1.4 5.4-2l.3-.1c3.7-.9 7.6-1.6 11.4-2.3-.1 0-.2-.1-.2-.1l.3-.3.2-.5-.2-.5-.5-.4-1.9-1.8-.4-.5c-1.2-1.8-1.9-4.2-2.8-6.2l-1.1-2.4c-3.4-3.8-7.6-2.7-9-7.8-7.1-6.3-1.5-15.1 1.6-10l1.7.5c.2-1 .8-2 1.6-3v-.2c-3.1-2.2-1.5-4.1-.5-6.5 0-.8-.1-1.1.1-1.9-2.7-.3-3.4-2.4-5-4.6-2.5 1-2.2 2-4.9-.2-2.1 0-5.8-1.5-5-4.4l.4-1.5c-3.9-2.1-3.5-2.7-2-6.4l-1.8-1.1c-1.5-.9-2-2.2-3-3.6l-3.6-5.3c-2.5-4.5-4.2-9.9-6.2-14.6-.4-1 .2-2.5.6-3.3l.6-1.2c.5-.9.4-1.4.4-2.5 0-4.7 2.5-5.1 2.9-9.4.3-2.9 2.2-5.4 4.5-7.1l.3-1.7c-1-3.1-3.2-6.5-.3-9.1-1.5-1.7-2-3.1-2.8-5.1-2.2-.6-3.8-2.3-5.1-4-3-1.1-2.4-2.2-4.4-4.1-.8-.5-1.6-1.1-2.3-1.6-3.5-.4-5-.3-6.1-.9s-1.9-1.9-4-5c-.3-.4-.4-1.6-.4-2.1.1-.5.1-.8.1-1-2.4-6.2 3.1-6.2 4.2-10.4.7-2.8 1-2.8 3.8-4.1 2-1 2.3-1.3 3.8-2.8 2.5-2.4 2.2-1.9 6.2-2.7 1.5-1.6 2.5-3.5 4.9-3.5 2.6-2.5 4.1-4.8 5.8-5-.2-.8 0-1.7.6-3 .6-1.5 3.2-1.9 5.1-1.3-.4-1.5-.7-3-.6-4.5l.1-1.5c.1-1.8 0-2.6.7-4.1l3.6.1c.5.4 1 .9 1.6 1.3l3-2.1.3-1.1c.8-2.5.7-2.3 2.3-4.3.7-.9.7-1 1.8-1.5l2.1-1c.6-.3 3-3.9 3.2-4.8.1-.5 1-4.2 1.1-4.4.5-1.2 3.7-4.4 4.1-5.1.4-.8.6-4.1 1-4.7 1.3-2.2 4.1-5.1 4.5-7.6.2-1.5-.1-3.4.3-4.8 0 0 2-5.1 2.1-5.1.1-.2.3-.3.5-.4l1-.8 2.9-.3c2.1-1.7 1.2-3.6 2-5.3l1.6-2.3c-.5-1-1.4-2-1.7-3-.5-1.4-.4-3.2-.9-4.6-.5-1.5-1.3-3-2-4.4 1.1-2.4 2.9-5.9 3.7-8.3.3-.8.3-2 .4-2.8 0-.3.3-1.8.3-1.8-.7-2.5-1.3-5.4-2.2-7.8-2.9-7.8-6.2-15.5-9.2-23.3-.5-1.2-.6-2.8-1.2-3.9 0-.1-2.1-2.4-2.2-2.5-2-2.1-4-4.2-6.1-6.3-1.4-1.4-2.5-2-3.6-3.8l-1.1-2.3c-.3-1.6.3-4.6.7-6.2.1-.6.4-.9.3-1.5 0-.4-2-6.8-2.3-7.6l.2-1.3c.3-1.9.5-3.9.9-5.8.4-1.6 1.2-3.2 1.7-4.8-1.1-1.9-2.1-3.9-3-5.8.7-1.7 1.3-3.6 1.5-5.4-.2-.3-1.5-2.6-1.6-2.7-2.7-2.5-5.4-4.9-8-7.4-.8-.8-1.5-1.8-2.3-2.5-1.5-1.3-3.2-2.4-4.8-3.7-1.5-1.3-2.9-2.7-4.3-4-.2-.2-.3-.3-.5-.5-3.2-3.4-4-4.8-7.9-7.2-.4-.2-2.2-1.3-2.7-1.4-.9-.2-1.9-.1-2.8-.2s-1.3-.2-2.2-.4c-2.3-.4-4.9-.6-7.1-1.4-1.7-.6-3.6-1.8-5.1-2.7-3.2-1.9-6.4-4.1-9.7-5.7-2.5-1.2-8.6-2.2-10.2-3.3-1-.7-2.2-2.1-3.1-3l-.6-2.4c0-1.8.5-3.6.5-5.4 0-2.2-.3-4.6-.4-6.8 0 0-.1-.3-.2-.4-.2-.5-.5-1.3-.8-1.8-1.4-2.1-3.4-3.9-4.7-6-.8-1.3-1.8-5.2-1.8-6.7 0-.5.2-.7.3-1.2l.6-2.4c1.4-4.2 4.6-9.9 6.7-13.8m740.3-124.9c.1.2 1 5.4 1.4 7.6 2.5 3.5 5.7 4.8 9.8 5.9 2.1-.6 4.3-1.4 6.4-1.8 1.4-.3 4.8-.5 6.2-.5.1 0 2.4.6 2.7.7l1.3.3c3.1 1.8 6.3 3.9 9.5 5.6 1.4.7 4.4 1.5 6.1 1.5l7.5-4.5 2 .1c2.2 2.9 5.3 4.9 7.6 7.7 0 0 .4 1.3.5 1.4l-.8 1.2c-2 1.1-5 .4-7.2.8-1.5.3-3 .4-4 1.7l-1 1.3c-.6.6-1.6 1.1-2.2 1.7-.6.7-1.2 2.8-1.7 3.7s-1.2 1.8-1.8 2.7l-1.9.4c-.6.8-1.3 2.6-1.1 3.7 1.1 2.1 2.5 4.1 3.9 6.1 2.9 4.2 5.8 8.4 8.9 12.4.6.9.9 1.4 1.6 2.2.9.9 7.5 5.1 9.1 6.1.3.2.6.4.9.6 2.5 1.2 5.3 2.4 7.7 3.7 1.7 1 4.3 3.3 6 4.6.5.4.7.7 1.2 1 .3.2 6.1 2.3 6.6 2.4.2 0 5.1 1 5.2 1 2.8.1 5.7-.5 8.5-.3.6 0 .9.2 1.4.4 3.1.8 3.9 1.2 6.8 2.6 2.5 1.2 5 2.5 7.5 3.8 1.1.6 1.7.7 2.7 1.4 2.7 1.8 4.8 4.7 7.5 6.6.3.2 8.8 4.9 9.1 5.1l2.2.1c2 .1 4.1.2 6.1.4l3.1.3c1.8-.1 5.2-.8 7-1.1.4-.1 3.1-.9 3.2-.9 2.6 0 5.3.8 7.9.8 3 .1 6.1-.6 9.1-.5 2.5.1 7.9 1.9 10.1 2.9l4.8-2.7 2.5-9c2.2-.6 4.4-1.2 6.6-1.8 2.2 2.3 6.4 7.4 8.8 9.1.6.4 1.5.8 2.2 1.1l12.8-.9c1.5-.1 5.2 1.2 6.2 1.5 3.3 1.1 10.2 3.9 13.9 2.8.1-.3.4-.6.6-.8l5.3.7c.1.7 0 1.5-.4 2.4.8 1.1 1 1.8.9 2.6.7.3 1.2.8 1.5 1.7 2.5.1 2.4 3.8 2.6 5.3 1.3 1.3 2.6 2.6 3.8 3.9 4.2-2 4.8-.1 6.5 3.7 3-1 4.3.4 4.5 2.3 2 .2 3.4 1.3 4.4 4l.1.3c1.6.1 3 .4 3.5 2.1 3.1-.6 4.3 2.6 4.9 4.8 4.1 1.1 5 .6 7.1 3.4l.3.7c.7-.2 1.4-.4 2.1-.6 1-.4 1.9-1.2 2.9-1.5 1-.4 2.8-.8 3.9-.9 1.7-.2 3.6-.1 5.4-.2 2.4-.1 5-.6 7.4-.6.5 0 1.3.2 1.9.3 2.3.4 4.1 1 6.2 2 .8.4 2.1.9 2.7 1.6.9 1.2 1.6 3.1 2.3 4.5.8 3.2 3 6.7 4.6 9.5.4.7 1.6 3.1 2 3.4 2.6 2.5 5.5 2.8 8.1-.1 1.1-1.2 2.6-5 3.5-6.5.9-1.6 2-3.1 3.2-4.6l.2-.3c1.3-1.7 2.7-3.4 3.9-5.2 1.9-3 4.1-7.3 6.5-9.8.4-.5 1-.9 1.5-1.3 1-.9 2.6-.7 3.9-.6 1.7.1 3.7.3 5.3.8 2.3.7 5.4 5.6 7.7 7.3.6.5 1.5.8 2.2 1.2 0 0 .2.1.2.1h1.3c.2-.1.5-.1.7-.3 0-.8.1-1.6.6-2.5.8-2.5.7-2.7 2.7-4.5.1-4.2-.1-3.2 2.3-7-.2-2.3-1.9-15.2.7-17.6l2.1-1.9c0-2.2-.1-3.5.6-5.6l-.4-.4c-1-1.2-1.4-1.8-1.7-3.3l-.1-.8c0-.2-1.3-4.6-.5-6l1.3-2.4c.4-.8.7-1.1 1.5-1.6l.8-.5c-.2-2.2 2.2-2.9 3.1-6.7.2-.9 1.4-1.7 2.2-1.9 2.1-.6 2.2-.4 4-1.8l1.8-5.9c-.9-1.9-2.3-3.7-.5-5.6.5-.5 1.2-1.1 1.8-1.7l2.1-1.5m-610 674.7c-3 0-6.5 0-6.5 2s0 4.5 2.5 4.5h6s.5-2 .5-4 .5-2.5-2.5-2.5zm11.6-688.9c.9.6 2.4 1.4 3.2 2.2 1.6 1.5 2.3 7.6 2.8 9.8 0 0 0 .2.1.2 2.1 2.9 4.1 5.9 6.3 8.8.5.7 1.5 1.3 2 2.1.8 1.3.9 5.2.8 6.6-.2.4-3.3 6.1-3.4 6.1-.7.7-8 5.9-9.3 6.8-.3 1.4-.2 2.7-.1 4.1.7.9 1.5 1.8 2.3 2.7 1.6-.2 6.8-1 8.2-1 3 .1 11.9 2.5 14.3 1.5 2.5-1 7.3-5.1 9.4-6.8.3-.3.8-.7 1.2-.9.6-.3 3.1-.8 3.7-.7 1 .1 2.3.7 3.3 1l4.2 4.2s2 4 2 7 6.5 2.5 6.5 2.5l4 4s5 .5 8.5.5 3 5.5 3 5.5-1 5.5-1.5 8.5-3 5.5-3 5.5-7.5 4-12 4-8.8-.9-8.8-.9c-.5.2-1.2.5-1.7.5l-17.4 2.1-1.9.7c-1.4 1-3.3 3.7-4.1 5.3.1 1.3.4 2.7.4 4 0 .5-.3 1.1-.4 1.6-.1 1.5.9 3.2 1 4.5 0 0-.5 2.2-.5 2.4-.5 2-1.9 2.6-2 5.2 0 .6-.2 1.4-.1 2 0 .1 2.1 4.8 2.3 5.1h.5c1.3-.8 2.8-1.5 4-2.4 1-.7 1.8-1.7 2.7-2.4l1.6-.4c1.4-.1 3.7.9 4.9 1.6 1.3 0 3.7-1.6 4.7-2.3l3.2-7.7-.4-1.4c-1.7-.8-3.4-1.7-5.1-2.5-.3-.8-.1-2.3.4-3.1.1-.1 1.5-1 1.5-1 1.4-.4 7.8-.7 9.5-.9l2.3 1.2c.9 2 .9 10.6 1 13.1 0 .1.7 1.6.8 1.8.7 1.5 1.3 3.1 1.7 4.7l1.6 1.3c1.2.3 3.9-.6 4.9-1.1 4.7 1.4 8.5 4 10.6 8 .8 1.5 1.6 2.9 2.3 4.5 1 .4.8 3.3 1.8 3.6l12.9 4.9c.8-.5-3.3-7.8-2-8 .1 0 3.9-2 4-2 1.2-.6 2.3-1.2 3.5-1.7.9-.4 2-.6 2.9-1 1.2-.6 2.4-1.5 3.5-2.2.1.1.7.6.7.6.6 1.1.9 2.3 1.4 3.4 1.4 3.1 4.1 9.5 6.3 12 1.7.6 3.9.6 5.6.5.1 0 2.9-.5 2.9-.6l6.1 2s3 0 4-2 3.5-4 3.5-4l4.5-.5 2-7s3 .5 5 1.5 3.5 1 7 2 2 6.5-1.5 8.5-1.5 8.5-1 11.5 5.5 4 5.5 4l6-5.1c2.2.3 3.6 1.4 4.4 3.4-.3 1.7-.3 5.1.2 6.8l1.7 3.3 2.7 2.3c.1 0 2.8.7 3.1.7l.8 1.1c-.4 2.4-.8 4.8-1.2 7.1 1.9-.3 3.7-.6 5.6-.8 1.3-.1 1.4.2 2.4.8l2.8 5.7 1.3.9c.9.3 2.1.3 3.1.5 1.7.3 3.6.6 5.2 1 1.5.4 3.9 2.3 5.1 3.1l1.6 2.9 4.2-2c.7.5 2.3 1.1 2.8 1.6 0 0 1.4 1.7 1.4 1.7s.6 2.7.6 2.8c.2 2.3.6 6.5.6 8.8 0 3.6-3.2 12.4-5.3 15.4-.1.1-3.7 4.4-3.8 4.4-1.2 1-2 1.4-3.3 2.2l-6.5 4.5c-4.6 3.3-9.2 6.8-13.7 10.2-6.2 4.7-12.3 9.5-18.3 14.4-1.1.9-2.4 2.4-3.6 3.1s-5.3 2.4-7 3.1c-.8.4-2.2.7-2.9 1.2l-1.2 1.2c-.2.2-.5.3-.6.6-.8 2-2.5 9.2-3.6 10.7-.8 1-2.2 1.9-3.1 2.9-1.2 1.3-4.3 5-5.2 6.4s-1.3 2.3-2.1 3.8l-4.3 7.5c0 .1-.6 4.9-.6 5.3.1.7.5 1.7.8 2.4 1.1.7 2.8 1.4 3.8 2.2l1.4 2 .3 1.8c-.1 1-.7 2.1-.7 3.1-.1 1.8.2 3.8.4 5.6.1.2 1.6 2.3 1.6 2.4.9.8 2.6 1.5 3.7 2.1l9.2-1.2c2.1 1.5 4.3 3.3 6.5 4.6.1 0 2.2.6 2.4.7 1.6 2.7 3.1 5.4 4.7 8-1.3 2.6-3.2 5.9-4.3 8.5 0 .1-.3 2.5-.3 2.7l2.6 5.4c-1.3 1.6-3.2 4.9-3.7 6.8 0 .1-.6 4-.5 4.1 0 .1.8 4.3.8 4.3s2.7 3.2 2.8 3.2l9.6 7.4c1.9 1.4 2.8 2.4 4.8 3.7 1 .6 12.6 1.7 14.3 2 .8.2 7 3.9 7.5 4.3 0 0 3 4.4 3 4.5.6 1.2 3.3 9.2 3.6 9.5 1.4 1.6 2.5 2.2 4.1 3.7l8.2 7.4c1.2 1.2 4.9 5.4 5.9 6.7 1.6 2.2 2.6 4.9 4.2 7.1 1.4 1.9 4.4 4.9 6.1 6.8 3.3.2 6.8.2 10 .7 1.4.2 5.2 1.1 6.5 1.5l14.3 5c2.8 1 4.4 1.4 7.2 2.5 2.1.9 3.3 1.6 5.3 2.6l10.7 5.3c3 1.5 5.9 3.4 8.4 5.7 4.1.6 4.5.2 7.4 3.1h6.2c1.9 0 5.4 2.1 6.7 3.5 1.5 1.6 2.8 3.7 4 5.5 2.3.1 9.1.3 11-.2 1.5-.4 3.3-1.5 4.5-2.5 2 2.9 3.9 5.9 6 8.7 1.4 1.9 3.7 2.6 6 2-.1 2.6-.2 5.2-.2 7.7 0 1.6.1 2.7-1.5 3.5-1.3.7-4.6-2.6-6-3.2-3.2-1.4 0 4.5.7 5.2.7.8 1.8 1.4 2.6 2.1 1.9 1.4 8.1 5.8 9.3 7.4 1.8 2.5 1.5 6 .7 8.7-1.2 4.1-2 13.6-2 18 0 3.4-2 5-4.2 7.2-3.3 3.3-.9 8.4 1 11.7.9 1.6.7 4.5-1.2 4.5-1 0-2 .2-3 .3-1.4.1-2.8.2-4.2.2-2.6 0-4.3-.3-6 1.7-1.8 2.2-4 3.6-6.7 4.2-3.5.8.5 5.2 1.5 6.5.9 1.1 1.8 4.3 1.5 5.7 0 .3-4.3 7.3-4.7 8-1.9 3.1-3.4 9.6-3.7 13.2-.3 3.2-1.5 5.4-5 5.2-2.9-.1-1.7 1.7-5.5 1.7-4.5 0-5.2 6.3-6.5 9.5-.9 2.4-2.9 3.6-4 .7-.5-1.2-2.4-2.3-3.2-3.5-1.4-1.9-.8-4.3-3.7-5-3-.7-2.2-1.7-3.2-4.2-1.2-2.8-3.1-2.3-5.5-1.7-1.8.4-8.3-1.1-10.2-1.7-1.7-.6-3.7-1.9-5.5-1.7-5.5.5-11.3.8-16.7 0-4.6-.7-6.3 1.7-10 3.5-3.1 1.5-9.6 2-13.2 2.5-2.9.4-5.8 1.5-8.2 3.2-1.5 1.1-3.5 2.9-4.2 4.7.3.5 3.5 7 3.5 7.1 0 0 5.3 3.5 5.3 3.6 1.4.5 6.1.8 7.8 1.2 1.3.3 2.6 1.1 3.9 1.4.8.2 1.8 0 2.6.2l19 5.9c.1 0 3.2 2.1 3.5 2.3.1.1 3.9.2 4.2.2 2.8 0 10.8.5 13.2 1.2s7.7 4.4 9.5 6.2c1.4 1.5 3.9 6.9 4.2 9 .3 2.4-1.4 5.8-3.7 6.5-2.6.8-.8 4.3.5 5.5 1.2 1.1 2 2.6 2.7 4 .5.9 4.1 12.4 4.2 13.3.2 1.6.7 6.9 1.1 8.5s1.7 3.1 2.9 4.1c.1.1 2.7 1.9 2.7 1.9l9.9 3c1.9.6 3.1.8 4.9 1.5 2.4.9 6.7 3.1 9.2 4.3 3.4 1.6 6.8 3.3 10.2 4.8 2.6 1.1 5.4 2 8.1 2.9l11 4c.1.1 1.4 1.8 1.4 1.8.6 1.8.6 4 1.1 5.9 0 .1 1 2.1 1.1 2.2.9 1.7 1.7 2.8 3.3 4 .7.5 1.8.9 2.4 1.4s3.3 3.6 3.7 4.3c.5.9.2 1.7.5 2.5.2.6.7 1.2 1 1.7.2.4.2.8.4 1.1.1.1.8 1.8.9 1.8.6.8 7.4 5 8.4 5.4.5.2 1.1.3 1.6.5 1.5.6 2.3 2.4 2.5 3.9-.4 1.5-3.1 2.2-4 3.6-.1.7 1 2.1 1.4 2.6.7.8 1.6 1.7 2.5 2.3.1.1 1.7 1 1.8 1 2.2.8 5.3-.5 7.5-1 1.5.4 4.7 3.7 5.8 5 .5.5.9 1.2 1.4 1.7s1.2.9 1.8 1.4c.5.5 1 1 1.6 1.5 1.8 1.4 4.3 3.1 6.3 4.3 5.1 3.1 6.6 3.2 8.7 9.5.8 2.5.9 4.8-.6 7 0 .2.1 1.7.1 1.8s.8 1.3.9 1.5c.5.9 1 2 1.4 3-.4 1.2-1.2 4.7-1.2 5.9.1.2 1.2 1.7 1.3 1.8 0 0 1.5.8 1.6.8 1.1.6 2.5.2 3.1-.9.6-1 1.9-2.6 3-3 .4-.1 4.2-.2 4.7-.2 2 0 5.7-.6 7.5-1.5 1.2-.6 2.4-1.4 3.6-1.9.4-.2 1.1-.2 1.3-.3 1.3-.6 2.5-1.4 3.9-2.1.7-.3 1.5-.6 2.2-.9 1.4-.7 2.7-1.5 4-2.2.9-.4 2-.8 2.8-1.3 1.6-.9 3.1-2 4.6-3 1.1-.7 2.3-1.2 3.4-1.8 2-1.2 4-2.8 6.1-3.7 4-1.7 8.5-2.8 12.9-3.1.2 0 1.6-.1 1.7-.1 0 0 1.4.5 1.4.5.4.2 1.7 2.8 1.8 3.2.2.9.2 1.8.6 2.6 1.3 2.6 2.9 1.3 3.9 2.4 1.2 1.2 1.8 3.2 3.1 4.2 2.7-.1 4.4-3.7 5.6-5.7 1-.5 2.4-.3 3.4-.1l1.7 1.3c.4.9.3 1.8.2 2.7-.2 2.2-.5 4.5-.7 6.7-.1.8 0 1.6-.2 2.3-.1.6-.5 1.4-.5 2 0 .1.3 1.7.3 1.9.1.6.2 1.5.4 2.1.4 1.2 2 3 3.1 3.7 1 .7 2.9.7 3.9.1l.4-1.3 1.3-.9h1.3c.9.6 2.7 2.1 3.9 1.7 1.6-1 2.1-3 4.2-3.5 1.8-.5 3.9-.3 5.7-.5 1.4-.2 2.8-.5 4.1-.8 1.9.7 3.9 1.6 5.6 2.7s5.2 2.3 7.2 2.7c1.6.3 6.1.8 7.1 2.8.7 1.4 1.1 2.9 1.7 4.3 1 2.3 1.9 3 2 5.7l-1 .7c-1.9-.1-3-.6-4.6-.8-1.5-.2-4.6 1-5.4 2.4-.7 1.1-1.3 2.8-2.1 3.8-.5.7-1.6 1.3-2.3 1.7-1.7 1.1-3.5 2-5.4 2.8-.5.2-1.1.4-1.5.6-2 1.1-2.2 3.2-1.7 5.3.2.8 1.3 3.7 1.5 4.2 1.2 1.9 5.4 5.9 7.2 7.4 2.4 2.1 6.2 4.8 6.6 8.2-.8.5-2.4.6-3.2.4-2.8-2.6-6.1-1.8-9.2-3.3-1.3-2.7-3.5-6.5-7-4.5-.8.5-2.8 2.2-3.3 3-2.1 3.2-3.5 6.8-5.6 10-.2.4-.5.9-.7 1.2 0 0-.7.5-.8.6s-1.3.7-1.3.7c-2.2.7-10-2.5-12.1-3-.2 0-1.6.2-1.9.1-.5 0-1-.4-1.5-.4-1.6-.2-3.3.3-4.4 1.6-.1.1-1.3 2.4-1.3 2.5-.1.6 0 1.4-.1 2-.1.5-.7 3.1-1 3.6-.7 1-2.6 2-3.6 3.6l-.5 1c-.3 1.9 1.7 5.4 2.5 7.1.6 1.4 1.1 2.8 1.7 4.2.3.7.7 1.4 1 2.1.2.5.3 1.2.4 1.8.6 2.1 1.1 4.4 2.1 6.3 1.2 2.2 2.9 4.2 4.3 6.4 1.1 1.7 1.9 3.1 3.4 4.5 1.8 1.6 4 2.7 5.9 4.1 2.7 1.9 7.6 6.9 10.7 7.6 3.8-.2 5.5-5.3 8.6-6.9l1.4.1c1.1 1 1.7 2.3 2.6 3.4 1.2 1.5 1.7 1.7 2.7 3.6.4.7.7 1.7 1.2 2.4 1.2 1.6 3 2.9 4 4.7.1.2.8 3.1.8 3.3.2 2.1-1.6 3.8-2.6 5.6.1 1.5 2.3 10.6 3 11.7.3.5.8 1 1.1 1.5.4.5.6 1.2 1 1.7.7 1 1.4 1.5 2 2.7.9.3 1.8.8 2.7 1.1.7.2 1.5.4 2.2.6 1.7.5 3.3 1.2 4.9 1.8.6.8.5 1.5.8 2.4.5 1.6 1.4 4.8 2.5 6.1.5.6 2.4 1.7 3.2 1.9 1.3.2 3.6-.1 5-.1 1.9 0 4.1.3 5.9.9.4.5.7 1.2.8 1.7-.2.6-1.2 1.2-1.7 1.5-3.8 2.6-7 1-10.8 2.8-.7.3-1.4.9-2 1.3-4.6 3-5.7 4.6-8.4 9.2-.6 1.1-1 2.4-1.9 3.3-1.1 1.2-2.8 1.8-3.7 3.1-1.2 1.7-1.5 3.1-3.1 4.6-.8-.4-1.5-2.3-1.7-3.2-.2-1.2 0-2.6-.1-3.8-.1-1-.3-2.1-.4-3.1-.2-2.3-.1-4.7-.5-7-.2-1.2-1.1-1.9-1.8-2.8l-1.4-.5c-1 .1-3.3.9-4 1.6-1.1 1.1-2.2 2.6-3.2 3.9-1.1 1.4-2.3 4.7-4.4 4.7-1.6-1.1-7-3.7-8.5-4.3-.2-.1-1.9 0-2.3-.1-.8-.1-1.6-.5-2.3-.6-.6-.1-2.7.2-3.3.7-2.1 1.4-2.2 3.5-2.3 5.8-.1 1.9-.1 3.8.3 5.7.1.7.5 1.4.7 2.1.4 1.5 1.2 6.2 2.8 7.2 1.3.8 3 .9 4.4.7l4.8 3c1.4 0 3.6-1.9 5.5-2.4 1.1.4 2.3 1.1 3 1.9-.8 1.9-3.5 5.2-3.2 7.3.2 1.5 1.4 2.1 2.5 2.9.4.3.9.9 1.3 1.1 1 .5 1.7.1 2.5 1.3.4.6.6 2.5.4 3.1-.1.3-.4.7-.5 1-.2.9.9 3.5 1.5 4.1.7.8 1.9 1.1 2.8 1.6 1 .6 1.6 1.4 2.8 1.6 1.6 1.9 3 3.9 3.5 6.3l-.7 1.8c-1.9.5-4.5 3.1-4.7 5.2l.2 1.2c.6 1 1.5 1.9 2.3 2.8 1.1.6 1.8.3 2.8.3 1.5.1 3.9.7 4.9 1.9.4.8.2 1.5.1 2.3-.4 1.5-1.1 2.5-2 3.7-.1.1-.9 1.1-1 1.2-.4.9-.7 2-1.1 2.9-.9 2.5-1.8 4.9-2.5 7.5-.3 1.1-.5 2.2-.8 3.3-.5 1.5-1.2 3-1.7 4.5-.4 1.2-.5 2.3-.7 3.4 0 .2-.3.6-.3.8-.2 2.6 2.5 4.3 1.4 7.1-.7 1.8-2.1 2.7-3.3 4.1-.5.6-1.4 3.2-1.5 4 0 .1-.2 1.9-.2 2 .1 1.5 3.3 8.2 4.1 9.5 1.5 2.6 3.3 5 4.8 7.7.3.5.8 1.2.9 1.7.3.8.6 3.2.7 4.1.1 1.4-.2 2.8.1 4.2.4 2.4.8 4.7 1.4 7.1l1.5 2m52.8-1113.7-1.9-.2c-1.9-.3-2.9-.4-4.1-2.4-.6-1.1.1-2.6.6-3.6-.1-.2-.2-.3-.4-.6l-1.8-2.1c-1.8-2.1-1.7-3.5-1-6l-.8-2c-.2-.6-.4-1.1-.3-1.7-1.1.4-2.2.5-3.2-.2-3.2 1.8-4.7-2.6-4.2-4.9-1.9.1-3.2-1.1-3.6-2.6-1 .6-2 .6-3-.5l-1.4-1.6c-2.3.2-7.6-2-5.3-5.1 1.6-2.2 1.9-2.8 3.5-2.9-.7-.4-1.7-.9-2.9-1.6-.1-.1-.2-.1-.3-.2-2.1.3-4.9-1.5-5.3-3.5-.2 0-.5 0-.8-.1-1.4-.2-2.2-1.9-2.7-3l-5.5-1.7-3.1-2.9" fill="none" stroke="#646464" stroke-width="2.9922"/></g></svg>